<svg id="svg" xmlns="http://www.w3.org/2000/svg" xmlns:xlink="http://www.w3.org/1999/xlink" width="400" height="398.75000000000006" viewBox="0, 0, 400,398.75000000000006"><g id="svgg"><path id="path0" d="M0.000 199.375 L 0.000 398.750 200.000 398.750 L 400.000 398.750 400.000 199.375 L 400.000 0.000 200.000 0.000 L 0.000 0.000 0.000 199.375 M177.260 27.594 C 177.014 28.333,176.278 28.938,175.625 28.938 C 174.972 28.938,174.236 28.333,173.990 27.594 C 173.743 26.855,174.479 26.250,175.625 26.250 C 176.771 26.250,177.507 26.855,177.260 27.594 M201.250 28.824 C 201.250 29.471,200.406 30.000,199.375 30.000 C 197.442 30.000,196.892 28.525,198.299 27.117 C 199.298 26.119,201.250 27.248,201.250 28.824 M218.437 30.729 C 217.246 31.921,214.858 29.991,215.746 28.555 C 216.273 27.701,216.973 27.723,217.870 28.620 C 218.606 29.356,218.861 30.305,218.437 30.729 M171.250 30.625 C 171.250 31.656,170.721 32.500,170.074 32.500 C 168.498 32.500,167.369 30.548,168.367 29.549 C 169.775 28.142,171.250 28.692,171.250 30.625 M175.625 36.250 C 175.020 37.229,174.301 37.301,173.468 36.468 C 172.780 35.780,172.626 34.557,173.125 33.750 C 173.730 32.771,174.449 32.699,175.282 33.532 C 175.970 34.220,176.124 35.443,175.625 36.250 M188.464 33.984 C 187.691 36.302,185.000 36.687,185.000 34.479 C 185.000 33.391,185.891 32.500,186.979 32.500 C 188.068 32.500,188.736 33.168,188.464 33.984 M192.594 34.094 C 192.439 35.588,190.725 35.299,190.188 33.688 C 189.913 32.862,190.362 32.413,191.188 32.688 C 192.013 32.962,192.645 33.595,192.594 34.094 M210.000 35.074 C 210.000 35.721,209.156 36.250,208.125 36.250 C 206.192 36.250,205.642 34.775,207.049 33.367 C 208.048 32.369,210.000 33.498,210.000 35.074 M215.130 35.370 C 213.525 36.975,211.898 35.735,213.086 33.813 C 213.546 33.068,214.495 32.813,215.195 33.246 C 216.049 33.773,216.027 34.473,215.130 35.370 M182.500 35.000 C 182.500 35.688,181.656 36.250,180.625 36.250 C 179.594 36.250,178.750 35.688,178.750 35.000 C 178.750 34.313,179.594 33.750,180.625 33.750 C 181.656 33.750,182.500 34.313,182.500 35.000 M221.250 35.625 C 221.250 36.656,220.406 37.500,219.375 37.500 C 217.423 37.500,216.895 36.022,218.333 34.583 C 219.772 33.145,221.250 33.673,221.250 35.625 M246.438 35.625 C 246.438 36.278,245.833 37.014,245.094 37.260 C 244.355 37.507,243.750 36.771,243.750 35.625 C 243.750 34.479,244.355 33.743,245.094 33.990 C 245.833 34.236,246.438 34.972,246.438 35.625 M170.094 36.594 C 169.939 38.088,168.225 37.799,167.688 36.188 C 167.413 35.362,167.862 34.913,168.688 35.188 C 169.513 35.462,170.145 36.095,170.094 36.594 M226.316 36.875 C 226.218 38.730,223.422 38.390,222.773 36.443 C 222.422 35.392,222.994 34.923,224.297 35.193 C 225.444 35.431,226.352 36.188,226.316 36.875 M232.500 36.875 C 232.500 37.906,231.656 38.750,230.625 38.750 C 229.594 38.750,228.750 37.906,228.750 36.875 C 228.750 35.844,229.594 35.000,230.625 35.000 C 231.656 35.000,232.500 35.844,232.500 36.875 M160.000 38.750 C 160.000 39.438,159.156 40.000,158.125 40.000 C 157.094 40.000,156.250 39.438,156.250 38.750 C 156.250 38.063,157.094 37.500,158.125 37.500 C 159.156 37.500,160.000 38.063,160.000 38.750 M238.750 39.375 C 238.750 40.406,238.221 41.250,237.574 41.250 C 235.998 41.250,234.869 39.298,235.867 38.299 C 237.275 36.892,238.750 37.442,238.750 39.375 M132.630 41.620 C 131.025 43.225,129.398 41.985,130.586 40.063 C 131.046 39.318,131.995 39.063,132.695 39.496 C 133.549 40.023,133.527 40.723,132.630 41.620 M153.938 40.625 C 153.938 41.278,153.333 42.014,152.594 42.260 C 151.855 42.507,151.250 41.771,151.250 40.625 C 151.250 39.479,151.855 38.743,152.594 38.990 C 153.333 39.236,153.938 39.972,153.938 40.625 M243.750 40.625 C 243.750 41.656,243.188 42.500,242.500 42.500 C 241.813 42.500,241.250 41.656,241.250 40.625 C 241.250 39.594,241.813 38.750,242.500 38.750 C 243.188 38.750,243.750 39.594,243.750 40.625 M148.844 41.594 C 148.689 43.088,146.975 42.799,146.438 41.188 C 146.162 40.362,146.613 39.913,147.438 40.188 C 148.262 40.462,148.895 41.095,148.844 41.594 M248.750 41.875 C 248.750 42.906,247.906 43.750,246.875 43.750 C 244.923 43.750,244.395 42.272,245.833 40.833 C 247.272 39.395,248.750 39.923,248.750 41.875 M267.500 41.875 C 267.500 42.906,266.938 43.750,266.250 43.750 C 265.563 43.750,265.000 42.906,265.000 41.875 C 265.000 40.844,265.563 40.000,266.250 40.000 C 266.938 40.000,267.500 40.844,267.500 41.875 M125.559 43.857 C 125.157 44.508,124.363 44.754,123.795 44.403 C 123.227 44.052,122.426 44.641,122.015 45.711 C 121.604 46.782,120.625 47.261,119.839 46.775 C 118.886 46.187,119.393 45.151,121.358 43.669 C 124.282 41.463,126.964 41.583,125.559 43.857 M143.880 44.120 C 142.275 45.725,140.648 44.485,141.836 42.563 C 142.296 41.818,143.245 41.563,143.945 41.996 C 144.799 42.523,144.777 43.223,143.880 44.120 M140.000 45.074 C 140.000 45.721,139.156 46.250,138.125 46.250 C 136.192 46.250,135.642 44.775,137.049 43.367 C 138.048 42.369,140.000 43.498,140.000 45.074 M255.000 44.375 C 255.000 45.406,254.471 46.250,253.824 46.250 C 252.248 46.250,251.119 44.298,252.117 43.299 C 253.525 41.892,255.000 42.442,255.000 44.375 M261.250 45.000 C 261.250 45.688,262.141 46.250,263.229 46.250 C 264.318 46.250,265.007 46.855,264.760 47.594 C 264.514 48.333,263.918 48.846,263.435 48.734 C 258.751 47.649,257.500 46.963,257.500 45.479 C 257.500 44.528,258.344 43.750,259.375 43.750 C 260.406 43.750,261.250 44.313,261.250 45.000 M133.750 46.176 C 133.750 47.651,131.312 49.229,130.417 48.333 C 129.521 47.438,131.099 45.000,132.574 45.000 C 133.221 45.000,133.750 45.529,133.750 46.176 M273.510 46.344 C 273.264 47.083,272.528 47.688,271.875 47.688 C 271.222 47.688,270.486 47.083,270.240 46.344 C 269.993 45.605,270.729 45.000,271.875 45.000 C 273.021 45.000,273.757 45.605,273.510 46.344 M270.000 50.625 C 270.000 51.656,269.471 52.500,268.824 52.500 C 267.248 52.500,266.119 50.548,267.117 49.549 C 268.525 48.142,270.000 48.692,270.000 50.625 M284.687 51.979 C 283.496 53.171,281.108 51.241,281.996 49.805 C 282.523 48.951,283.223 48.973,284.120 49.870 C 284.856 50.606,285.111 51.555,284.687 51.979 M122.500 51.042 C 122.500 52.669,121.014 53.752,119.805 53.005 C 118.512 52.206,119.627 50.000,121.324 50.000 C 121.971 50.000,122.500 50.469,122.500 51.042 M273.938 53.125 C 273.938 53.778,273.333 54.514,272.594 54.760 C 271.855 55.007,271.250 54.271,271.250 53.125 C 271.250 51.979,271.855 51.243,272.594 51.490 C 273.333 51.736,273.938 52.472,273.938 53.125 M289.760 53.844 C 289.514 54.583,288.778 55.188,288.125 55.188 C 287.472 55.188,286.736 54.583,286.490 53.844 C 286.243 53.105,286.979 52.500,288.125 52.500 C 289.271 52.500,290.007 53.105,289.760 53.844 M280.000 56.949 C 280.000 59.011,278.024 59.360,276.875 57.500 C 275.856 55.851,277.350 53.510,278.836 54.428 C 279.476 54.824,280.000 55.958,280.000 56.949 M101.438 56.875 C 101.438 57.528,100.833 58.264,100.094 58.510 C 99.355 58.757,98.750 58.021,98.750 56.875 C 98.750 55.729,99.355 54.993,100.094 55.240 C 100.833 55.486,101.438 56.222,101.438 56.875 M285.000 59.336 C 285.000 60.454,285.733 60.890,286.875 60.452 C 288.062 59.996,288.750 60.469,288.750 61.741 C 288.750 64.251,288.175 64.250,284.342 61.738 C 282.653 60.632,281.581 59.226,281.960 58.613 C 283.047 56.853,285.000 57.317,285.000 59.336 M298.750 61.324 C 298.750 61.971,297.906 62.500,296.875 62.500 C 294.942 62.500,294.392 61.025,295.799 59.617 C 296.798 58.619,298.750 59.748,298.750 61.324 M102.594 62.844 C 102.439 64.338,100.725 64.049,100.188 62.438 C 99.912 61.612,100.363 61.163,101.188 61.438 C 102.013 61.712,102.645 62.345,102.594 62.844 M87.630 67.870 C 86.025 69.475,84.398 68.235,85.586 66.313 C 86.046 65.568,86.995 65.313,87.695 65.746 C 88.549 66.273,88.527 66.973,87.630 67.870 M298.750 68.125 C 298.750 69.156,298.188 70.000,297.500 70.000 C 296.813 70.000,296.250 69.156,296.250 68.125 C 296.250 67.094,296.813 66.250,297.500 66.250 C 298.188 66.250,298.750 67.094,298.750 68.125 M307.500 68.125 C 307.500 69.156,306.971 70.000,306.324 70.000 C 304.748 70.000,303.619 68.048,304.617 67.049 C 306.025 65.642,307.500 66.192,307.500 68.125 M93.437 70.729 C 92.246 71.921,89.858 69.991,90.746 68.555 C 91.273 67.701,91.973 67.723,92.870 68.620 C 93.606 69.356,93.861 70.305,93.437 70.729 M82.500 71.875 C 82.500 72.906,81.938 73.750,81.250 73.750 C 80.563 73.750,80.000 72.906,80.000 71.875 C 80.000 70.844,80.563 70.000,81.250 70.000 C 81.938 70.000,82.500 70.844,82.500 71.875 M303.750 72.574 C 303.750 73.221,302.906 73.750,301.875 73.750 C 299.942 73.750,299.392 72.275,300.799 70.867 C 301.798 69.869,303.750 70.998,303.750 72.574 M90.000 73.750 C 90.000 74.438,89.156 75.000,88.125 75.000 C 87.094 75.000,86.250 74.438,86.250 73.750 C 86.250 73.063,87.094 72.500,88.125 72.500 C 89.156 72.500,90.000 73.063,90.000 73.750 M306.875 76.250 C 306.270 77.229,305.551 77.301,304.718 76.468 C 304.030 75.780,303.876 74.557,304.375 73.750 C 304.980 72.771,305.699 72.699,306.532 73.532 C 307.220 74.220,307.374 75.443,306.875 76.250 M323.750 75.000 C 323.750 75.688,322.906 76.250,321.875 76.250 C 320.844 76.250,320.000 75.688,320.000 75.000 C 320.000 74.313,320.844 73.750,321.875 73.750 C 322.906 73.750,323.750 74.313,323.750 75.000 M85.000 76.875 C 85.000 77.906,84.438 78.750,83.750 78.750 C 83.063 78.750,82.500 77.906,82.500 76.875 C 82.500 75.844,83.063 75.000,83.750 75.000 C 84.438 75.000,85.000 75.844,85.000 76.875 M312.500 80.074 C 312.500 80.721,311.656 81.250,310.625 81.250 C 308.692 81.250,308.142 79.775,309.549 78.367 C 310.548 77.369,312.500 78.498,312.500 80.074 M81.380 81.620 C 79.775 83.225,78.148 81.985,79.336 80.063 C 79.796 79.318,80.745 79.063,81.445 79.496 C 82.299 80.023,82.277 80.723,81.380 81.620 M316.250 83.824 C 316.250 84.471,315.406 85.000,314.375 85.000 C 312.442 85.000,311.892 83.525,313.299 82.117 C 314.298 81.119,316.250 82.248,316.250 83.824 M320.000 86.875 C 320.000 87.906,319.156 88.750,318.125 88.750 C 316.173 88.750,315.645 87.272,317.083 85.833 C 318.522 84.395,320.000 84.923,320.000 86.875 M328.750 89.241 C 328.750 90.199,329.629 91.320,330.704 91.732 C 331.779 92.145,332.282 93.091,331.822 93.835 C 331.282 94.710,330.149 94.289,328.618 92.646 C 326.039 89.878,325.522 87.500,327.500 87.500 C 328.188 87.500,328.750 88.284,328.750 89.241 M324.322 91.164 C 325.246 92.659,322.895 94.141,321.230 93.112 C 319.832 92.248,320.749 90.000,322.500 90.000 C 323.106 90.000,323.926 90.524,324.322 91.164 M71.250 93.824 C 71.250 94.471,70.406 95.000,69.375 95.000 C 67.442 95.000,66.892 93.525,68.299 92.117 C 69.298 91.119,71.250 92.248,71.250 93.824 M327.214 95.234 C 326.441 97.552,323.750 97.937,323.750 95.729 C 323.750 94.641,324.641 93.750,325.729 93.750 C 326.818 93.750,327.486 94.418,327.214 95.234 M67.187 99.479 C 65.996 100.671,63.608 98.741,64.496 97.305 C 65.023 96.451,65.723 96.473,66.620 97.370 C 67.356 98.106,67.611 99.055,67.187 99.479 M330.000 100.625 C 330.000 101.656,329.471 102.500,328.824 102.500 C 327.248 102.500,326.119 100.548,327.117 99.549 C 328.525 98.142,330.000 98.692,330.000 100.625 M333.510 105.094 C 333.264 105.833,332.528 106.438,331.875 106.438 C 331.222 106.438,330.486 105.833,330.240 105.094 C 329.993 104.355,330.729 103.750,331.875 103.750 C 333.021 103.750,333.757 104.355,333.510 105.094 M341.250 106.875 C 341.250 107.906,340.721 108.750,340.074 108.750 C 338.498 108.750,337.369 106.798,338.367 105.799 C 339.775 104.392,341.250 104.942,341.250 106.875 M193.323 110.667 C 198.911 113.638,201.186 115.679,201.231 117.762 C 201.268 119.506,194.358 125.000,192.127 125.000 C 190.876 125.000,190.151 125.483,190.515 126.073 C 190.880 126.662,188.611 129.897,185.474 133.260 C 176.365 143.024,163.076 159.086,161.147 162.662 C 160.173 164.470,157.125 168.751,154.375 172.176 C 135.506 195.677,135.500 195.969,153.058 231.826 C 160.140 246.291,166.322 259.380,166.794 260.913 C 167.698 263.847,174.905 276.248,177.577 279.468 C 179.946 282.322,177.287 284.167,170.804 284.167 C 163.324 284.167,158.001 281.744,155.143 277.040 C 152.048 271.948,135.243 238.244,129.924 226.462 L 125.787 217.299 123.546 220.212 C 122.314 221.814,121.293 223.737,121.278 224.484 C 121.263 225.231,119.081 228.888,116.431 232.609 C 113.780 236.330,109.655 243.031,107.263 247.500 C 97.442 265.852,93.323 272.742,91.833 273.314 C 85.602 275.705,69.043 264.615,72.625 260.450 C 73.725 259.171,77.313 254.226,80.599 249.461 C 83.886 244.696,87.626 239.668,88.912 238.288 C 90.198 236.908,91.250 234.803,91.250 233.610 C 91.250 232.418,92.579 229.852,94.204 227.908 C 95.829 225.965,97.595 222.969,98.129 221.250 C 98.664 219.531,100.882 216.284,103.059 214.035 C 105.237 211.785,107.756 207.847,108.659 205.285 C 109.561 202.722,111.435 199.380,112.824 197.859 L 115.348 195.093 112.534 188.484 C 102.391 164.660,91.969 147.979,84.963 144.356 C 75.960 139.700,80.176 131.078,90.937 132.140 C 103.451 133.374,106.726 136.533,116.875 157.155 C 126.773 177.267,126.241 176.977,133.361 166.153 C 152.880 136.482,169.570 116.709,180.252 110.602 C 186.838 106.837,186.114 106.833,193.323 110.667 M337.214 109.766 C 337.486 110.582,336.818 111.250,335.729 111.250 C 334.641 111.250,333.750 110.359,333.750 109.271 C 333.750 107.063,336.441 107.448,337.214 109.766 M339.714 114.766 C 339.986 115.582,339.318 116.250,338.229 116.250 C 337.141 116.250,336.250 115.359,336.250 114.271 C 336.250 112.063,338.941 112.448,339.714 114.766 M46.705 116.868 C 46.311 117.895,45.484 118.424,44.869 118.044 C 43.104 116.953,43.564 115.000,45.586 115.000 C 46.701 115.000,47.140 115.733,46.705 116.868 M342.500 118.542 C 342.500 120.169,341.014 121.252,339.805 120.505 C 338.512 119.706,339.627 117.500,341.324 117.500 C 341.971 117.500,342.500 117.969,342.500 118.542 M52.500 121.250 C 52.500 121.938,51.656 122.500,50.625 122.500 C 49.594 122.500,48.750 121.938,48.750 121.250 C 48.750 120.563,49.594 120.000,50.625 120.000 C 51.656 120.000,52.500 120.563,52.500 121.250 M344.687 125.729 C 343.496 126.921,341.108 124.991,341.996 123.555 C 342.523 122.701,343.223 122.723,344.120 123.620 C 344.856 124.356,345.111 125.305,344.687 125.729 M48.938 125.625 C 48.938 126.278,48.333 127.014,47.594 127.260 C 46.855 127.507,46.250 126.771,46.250 125.625 C 46.250 124.479,46.855 123.743,47.594 123.990 C 48.333 124.236,48.938 124.972,48.938 125.625 M347.500 129.375 C 347.500 130.406,346.656 131.250,345.625 131.250 C 344.594 131.250,343.750 130.406,343.750 129.375 C 343.750 128.344,344.594 127.500,345.625 127.500 C 346.656 127.500,347.500 128.344,347.500 129.375 M47.500 131.042 C 47.500 132.669,46.014 133.752,44.805 133.005 C 43.512 132.206,44.627 130.000,46.324 130.000 C 46.971 130.000,47.500 130.469,47.500 131.042 M350.000 134.375 C 350.000 135.406,349.471 136.250,348.824 136.250 C 347.248 136.250,346.119 134.298,347.117 133.299 C 348.525 131.892,350.000 132.442,350.000 134.375 M43.750 136.875 C 43.750 137.906,43.188 138.750,42.500 138.750 C 41.813 138.750,41.250 137.906,41.250 136.875 C 41.250 135.844,41.813 135.000,42.500 135.000 C 43.188 135.000,43.750 135.844,43.750 136.875 M358.750 138.125 C 358.750 139.156,358.221 140.000,357.574 140.000 C 355.998 140.000,354.869 138.048,355.867 137.049 C 357.275 135.642,358.750 136.192,358.750 138.125 M352.500 139.792 C 352.500 141.419,351.014 142.502,349.805 141.755 C 348.512 140.956,349.627 138.750,351.324 138.750 C 351.971 138.750,352.500 139.219,352.500 139.792 M42.500 142.574 C 42.500 143.221,41.656 143.750,40.625 143.750 C 38.692 143.750,38.142 142.275,39.549 140.867 C 40.548 139.869,42.500 140.998,42.500 142.574 M354.760 145.094 C 354.514 145.833,353.778 146.438,353.125 146.438 C 352.472 146.438,351.736 145.833,351.490 145.094 C 351.243 144.355,351.979 143.750,353.125 143.750 C 354.271 143.750,355.007 144.355,354.760 145.094 M40.000 148.125 C 40.000 149.156,39.438 150.000,38.750 150.000 C 38.063 150.000,37.500 149.156,37.500 148.125 C 37.500 147.094,38.063 146.250,38.750 146.250 C 39.438 146.250,40.000 147.094,40.000 148.125 M32.630 151.620 C 31.025 153.225,29.398 151.985,30.586 150.063 C 31.046 149.318,31.995 149.063,32.695 149.496 C 33.549 150.023,33.527 150.723,32.630 151.620 M355.188 150.625 C 355.188 151.278,354.583 152.014,353.844 152.260 C 353.105 152.507,352.500 151.771,352.500 150.625 C 352.500 149.479,353.105 148.743,353.844 148.990 C 354.583 149.236,355.188 149.972,355.188 150.625 M361.010 150.094 C 360.764 150.833,360.028 151.438,359.375 151.438 C 358.722 151.438,357.986 150.833,357.740 150.094 C 357.493 149.355,358.229 148.750,359.375 148.750 C 360.521 148.750,361.257 149.355,361.010 150.094 M38.510 152.594 C 38.264 153.333,37.528 153.938,36.875 153.938 C 36.222 153.938,35.486 153.333,35.240 152.594 C 34.993 151.855,35.729 151.250,36.875 151.250 C 38.021 151.250,38.757 151.855,38.510 152.594 M362.500 155.625 C 362.500 156.656,361.938 157.500,361.250 157.500 C 360.563 157.500,360.000 156.656,360.000 155.625 C 360.000 154.594,360.563 153.750,361.250 153.750 C 361.938 153.750,362.500 154.594,362.500 155.625 M280.613 160.938 C 285.412 166.068,285.551 168.694,281.498 177.590 C 273.618 194.887,273.358 193.937,285.326 191.569 C 302.256 188.220,314.804 188.835,318.285 193.184 C 322.881 198.929,321.119 200.210,305.625 202.381 C 280.303 205.929,270.598 208.548,269.551 212.116 C 265.835 224.782,260.638 252.305,261.752 253.419 C 262.277 253.944,264.422 252.405,266.519 249.999 C 285.012 228.782,286.717 227.604,288.684 234.688 C 290.524 241.313,290.482 241.487,285.625 247.161 C 283.219 249.972,281.250 252.772,281.250 253.382 C 281.250 260.060,265.895 271.161,260.333 268.504 C 249.230 263.201,246.548 250.198,251.875 227.500 C 255.533 211.910,255.484 212.500,253.129 212.500 C 250.754 212.500,241.250 203.989,241.250 201.863 C 241.250 199.793,244.083 198.754,249.790 198.733 C 257.227 198.705,259.964 197.500,260.729 193.913 C 261.990 187.997,271.417 160.680,272.753 159.071 C 274.773 156.636,277.109 157.190,280.613 160.938 M358.510 160.094 C 358.264 160.833,357.528 161.438,356.875 161.438 C 356.222 161.438,355.486 160.833,355.240 160.094 C 354.993 159.355,355.729 158.750,356.875 158.750 C 358.021 158.750,358.757 159.355,358.510 160.094 M31.250 161.875 C 31.250 162.906,30.406 163.750,29.375 163.750 C 27.423 163.750,26.895 162.272,28.333 160.833 C 29.772 159.395,31.250 159.923,31.250 161.875 M24.509 164.477 C 24.091 165.565,23.750 166.971,23.750 167.602 C 23.750 168.234,23.266 168.750,22.673 168.750 C 22.081 168.750,21.866 167.344,22.194 165.625 C 22.523 163.906,23.349 162.500,24.029 162.500 C 24.710 162.500,24.926 163.390,24.509 164.477 M36.250 163.542 C 36.250 165.169,34.764 166.252,33.555 165.505 C 32.262 164.706,33.377 162.500,35.074 162.500 C 35.721 162.500,36.250 162.969,36.250 163.542 M359.687 168.229 C 358.496 169.421,356.108 167.491,356.996 166.055 C 357.523 165.201,358.223 165.223,359.120 166.120 C 359.856 166.856,360.111 167.805,359.687 168.229 M35.000 169.479 C 35.000 170.568,34.332 171.236,33.516 170.964 C 31.198 170.191,30.813 167.500,33.021 167.500 C 34.109 167.500,35.000 168.391,35.000 169.479 M28.750 172.574 C 28.750 173.221,27.906 173.750,26.875 173.750 C 24.942 173.750,24.392 172.275,25.799 170.867 C 26.798 169.869,28.750 170.998,28.750 172.574 M361.250 172.500 C 361.250 173.188,360.406 173.750,359.375 173.750 C 358.344 173.750,357.500 173.188,357.500 172.500 C 357.500 171.813,358.344 171.250,359.375 171.250 C 360.406 171.250,361.250 171.813,361.250 172.500 M35.000 175.074 C 35.000 175.721,34.156 176.250,33.125 176.250 C 31.192 176.250,30.642 174.775,32.049 173.367 C 33.048 172.369,35.000 173.498,35.000 175.074 M361.250 178.125 C 361.250 179.156,360.748 180.000,360.134 180.000 C 359.520 180.000,358.694 179.156,358.298 178.125 C 357.860 176.983,358.296 176.250,359.414 176.250 C 360.424 176.250,361.250 177.094,361.250 178.125 M20.937 180.729 C 19.746 181.921,17.358 179.991,18.246 178.555 C 18.773 177.701,19.473 177.723,20.370 178.620 C 21.106 179.356,21.361 180.305,20.937 180.729 M27.688 179.375 C 27.688 180.028,27.083 180.764,26.344 181.010 C 25.605 181.257,25.000 180.521,25.000 179.375 C 25.000 178.229,25.605 177.493,26.344 177.740 C 27.083 177.986,27.688 178.722,27.688 179.375 M33.750 180.625 C 33.750 181.656,32.906 182.500,31.875 182.500 C 30.844 182.500,30.000 181.656,30.000 180.625 C 30.000 179.594,30.844 178.750,31.875 178.750 C 32.906 178.750,33.750 179.594,33.750 180.625 M361.942 182.609 C 362.404 183.356,362.133 184.617,361.339 185.411 C 359.771 186.979,357.079 184.193,358.281 182.247 C 359.155 180.834,360.955 181.012,361.942 182.609 M367.500 183.750 C 367.500 184.438,366.656 185.000,365.625 185.000 C 364.594 185.000,363.750 184.438,363.750 183.750 C 363.750 183.063,364.594 182.500,365.625 182.500 C 366.656 182.500,367.500 183.063,367.500 183.750 M33.125 187.292 C 33.125 189.552,30.678 189.140,30.193 186.797 C 29.923 185.494,30.392 184.922,31.443 185.273 C 32.368 185.581,33.125 186.490,33.125 187.292 M362.187 190.729 C 360.996 191.921,358.608 189.991,359.496 188.555 C 360.023 187.701,360.723 187.723,361.620 188.620 C 362.356 189.356,362.611 190.305,362.187 190.729 M21.250 193.125 C 21.250 194.156,20.688 195.000,20.000 195.000 C 19.313 195.000,18.750 194.156,18.750 193.125 C 18.750 192.094,19.313 191.250,20.000 191.250 C 20.688 191.250,21.250 192.094,21.250 193.125 M32.500 193.125 C 32.500 194.156,31.971 195.000,31.324 195.000 C 29.748 195.000,28.619 193.048,29.617 192.049 C 31.025 190.642,32.500 191.192,32.500 193.125 M362.187 195.729 C 360.996 196.921,358.608 194.991,359.496 193.555 C 360.023 192.701,360.723 192.723,361.620 193.620 C 362.356 194.356,362.611 195.305,362.187 195.729 M32.630 199.120 C 31.025 200.725,29.398 199.485,30.586 197.563 C 31.046 196.818,31.995 196.563,32.695 196.996 C 33.549 197.523,33.527 198.223,32.630 199.120 M28.750 201.324 C 28.750 201.971,27.906 202.500,26.875 202.500 C 24.942 202.500,24.392 201.025,25.799 199.617 C 26.798 198.619,28.750 199.748,28.750 201.324 M363.750 199.926 C 363.750 201.401,361.312 202.979,360.417 202.083 C 359.521 201.188,361.099 198.750,362.574 198.750 C 363.221 198.750,363.750 199.279,363.750 199.926 M33.125 205.000 C 32.520 205.979,31.801 206.051,30.968 205.218 C 30.280 204.530,30.126 203.307,30.625 202.500 C 31.230 201.521,31.949 201.449,32.782 202.282 C 33.470 202.970,33.624 204.193,33.125 205.000 M225.353 202.980 C 248.190 212.799,243.760 242.466,216.199 264.276 C 203.784 274.100,188.827 267.652,183.662 250.249 C 179.260 235.417,195.607 199.822,205.164 203.429 C 208.352 204.633,209.570 204.568,211.695 203.079 C 214.976 200.781,220.152 200.743,225.353 202.980 M27.500 207.500 C 27.500 208.188,26.656 208.750,25.625 208.750 C 24.594 208.750,23.750 208.188,23.750 207.500 C 23.750 206.813,24.594 206.250,25.625 206.250 C 26.656 206.250,27.500 206.813,27.500 207.500 M33.750 209.375 C 33.750 210.406,32.906 211.250,31.875 211.250 C 30.844 211.250,30.000 210.406,30.000 209.375 C 30.000 208.344,30.844 207.500,31.875 207.500 C 32.906 207.500,33.750 208.344,33.750 209.375 M33.125 216.250 C 32.520 217.229,31.801 217.301,30.968 216.468 C 30.280 215.780,30.126 214.557,30.625 213.750 C 31.230 212.771,31.949 212.699,32.782 213.532 C 33.470 214.220,33.624 215.443,33.125 216.250 M220.463 214.300 C 218.311 215.237,216.191 216.584,215.752 217.294 C 215.313 218.004,213.092 218.283,210.815 217.914 C 204.080 216.821,193.750 237.034,193.750 251.308 C 193.750 266.130,216.441 249.224,228.574 225.362 C 233.825 215.035,230.184 210.070,220.463 214.300 M28.437 220.729 C 27.246 221.921,24.858 219.991,25.746 218.555 C 26.273 217.701,26.973 217.723,27.870 218.620 C 28.606 219.356,28.861 220.305,28.437 220.729 M361.010 222.594 C 360.764 223.333,360.028 223.938,359.375 223.938 C 358.722 223.938,357.986 223.333,357.740 222.594 C 357.493 221.855,358.229 221.250,359.375 221.250 C 360.521 221.250,361.257 221.855,361.010 222.594 M360.000 228.125 C 360.000 229.156,359.438 230.000,358.750 230.000 C 358.063 230.000,357.500 229.156,357.500 228.125 C 357.500 227.094,358.063 226.250,358.750 226.250 C 359.438 226.250,360.000 227.094,360.000 228.125 M36.822 231.164 C 37.746 232.659,35.395 234.141,33.730 233.112 C 32.332 232.248,33.249 230.000,35.000 230.000 C 35.606 230.000,36.426 230.524,36.822 231.164 M25.937 236.979 C 24.746 238.171,22.358 236.241,23.246 234.805 C 23.773 233.951,24.473 233.973,25.370 234.870 C 26.106 235.606,26.361 236.555,25.937 236.979 M37.500 237.574 C 37.500 238.221,36.656 238.750,35.625 238.750 C 33.692 238.750,33.142 237.275,34.549 235.867 C 35.548 234.869,37.500 235.998,37.500 237.574 M355.094 245.344 C 354.939 246.838,353.225 246.549,352.688 244.938 C 352.413 244.112,352.863 243.663,353.688 243.938 C 354.512 244.213,355.145 244.845,355.094 245.344 M41.250 247.500 C 41.250 248.188,40.406 248.750,39.375 248.750 C 38.344 248.750,37.500 248.188,37.500 247.500 C 37.500 246.813,38.344 246.250,39.375 246.250 C 40.406 246.250,41.250 246.813,41.250 247.500 M43.750 253.125 C 43.750 254.156,43.221 255.000,42.574 255.000 C 40.998 255.000,39.869 253.048,40.867 252.049 C 42.275 250.642,43.750 251.192,43.750 253.125 M37.500 254.375 C 37.500 255.406,36.938 256.250,36.250 256.250 C 35.563 256.250,35.000 255.406,35.000 254.375 C 35.000 253.344,35.563 252.500,36.250 252.500 C 36.938 252.500,37.500 253.344,37.500 254.375 M352.500 256.324 C 352.500 256.971,351.674 257.500,350.664 257.500 C 349.549 257.500,349.110 256.767,349.545 255.632 C 350.283 253.709,352.500 254.228,352.500 256.324 M350.188 261.875 C 350.188 262.528,349.583 263.264,348.844 263.510 C 348.105 263.757,347.500 263.021,347.500 261.875 C 347.500 260.729,348.105 259.993,348.844 260.240 C 349.583 260.486,350.188 261.222,350.188 261.875 M46.250 263.125 C 46.250 264.156,45.721 265.000,45.074 265.000 C 43.498 265.000,42.369 263.048,43.367 262.049 C 44.775 260.642,46.250 261.192,46.250 263.125 M41.250 265.000 C 41.250 265.688,40.406 266.250,39.375 266.250 C 38.344 266.250,37.500 265.688,37.500 265.000 C 37.500 264.313,38.344 263.750,39.375 263.750 C 40.406 263.750,41.250 264.313,41.250 265.000 M348.750 266.250 C 348.750 266.938,347.906 267.500,346.875 267.500 C 345.844 267.500,345.000 266.938,345.000 266.250 C 345.000 265.563,345.844 265.000,346.875 265.000 C 347.906 265.000,348.750 265.563,348.750 266.250 M47.630 269.120 C 46.025 270.725,44.398 269.485,45.586 267.563 C 46.046 266.818,46.995 266.563,47.695 266.996 C 48.549 267.523,48.527 268.223,47.630 269.120 M51.010 272.594 C 50.764 273.333,50.028 273.938,49.375 273.938 C 48.722 273.938,47.986 273.333,47.740 272.594 C 47.493 271.855,48.229 271.250,49.375 271.250 C 50.521 271.250,51.257 271.855,51.010 272.594 M343.750 276.324 C 343.750 276.971,342.906 277.500,341.875 277.500 C 339.942 277.500,339.392 276.025,340.799 274.617 C 341.798 273.619,343.750 274.748,343.750 276.324 M53.510 277.594 C 53.264 278.333,52.528 278.938,51.875 278.938 C 51.222 278.938,50.486 278.333,50.240 277.594 C 49.993 276.855,50.729 276.250,51.875 276.250 C 53.021 276.250,53.757 276.855,53.510 277.594 M58.938 285.625 C 58.938 286.278,58.333 287.014,57.594 287.260 C 56.855 287.507,56.250 286.771,56.250 285.625 C 56.250 284.479,56.855 283.743,57.594 283.990 C 58.333 284.236,58.938 284.972,58.938 285.625 M52.500 289.375 C 52.500 290.406,51.971 291.250,51.324 291.250 C 49.748 291.250,48.619 289.298,49.617 288.299 C 51.025 286.892,52.500 287.442,52.500 289.375 M62.500 289.375 C 62.500 290.406,61.656 291.250,60.625 291.250 C 58.673 291.250,58.145 289.772,59.583 288.333 C 61.022 286.895,62.500 287.423,62.500 289.375 M340.130 290.370 C 338.525 291.975,336.898 290.735,338.086 288.813 C 338.546 288.068,339.495 287.813,340.195 288.246 C 341.049 288.773,341.027 289.473,340.130 290.370 M56.250 292.292 C 56.250 293.919,54.764 295.002,53.555 294.255 C 52.262 293.456,53.377 291.250,55.074 291.250 C 55.721 291.250,56.250 291.719,56.250 292.292 M66.250 295.074 C 66.250 295.721,65.406 296.250,64.375 296.250 C 62.442 296.250,61.892 294.775,63.299 293.367 C 64.298 292.369,66.250 293.498,66.250 295.074 M331.250 296.875 C 331.250 297.906,330.688 298.750,330.000 298.750 C 329.313 298.750,328.750 297.906,328.750 296.875 C 328.750 295.844,329.313 295.000,330.000 295.000 C 330.688 295.000,331.250 295.844,331.250 296.875 M57.630 299.120 C 56.025 300.725,54.398 299.485,55.586 297.563 C 56.046 296.818,56.995 296.563,57.695 296.996 C 58.549 297.523,58.527 298.223,57.630 299.120 M67.688 300.625 C 67.688 301.278,67.083 302.014,66.344 302.260 C 65.605 302.507,65.000 301.771,65.000 300.625 C 65.000 299.479,65.605 298.743,66.344 298.990 C 67.083 299.236,67.688 299.972,67.688 300.625 M327.594 300.344 C 327.439 301.838,325.725 301.549,325.188 299.938 C 324.913 299.113,325.363 298.663,326.188 298.938 C 327.012 299.212,327.645 299.845,327.594 300.344 M72.500 303.542 C 72.500 305.169,71.014 306.252,69.805 305.505 C 68.512 304.706,69.627 302.500,71.324 302.500 C 71.971 302.500,72.500 302.969,72.500 303.542 M66.344 306.594 C 66.189 308.088,64.475 307.799,63.938 306.188 C 63.663 305.363,64.112 304.913,64.938 305.188 C 65.763 305.462,66.395 306.095,66.344 306.594 M76.010 307.594 C 75.764 308.333,75.028 308.938,74.375 308.938 C 73.722 308.938,72.986 308.333,72.740 307.594 C 72.493 306.855,73.229 306.250,74.375 306.250 C 75.521 306.250,76.257 306.855,76.010 307.594 M326.380 309.120 C 324.775 310.725,323.148 309.485,324.336 307.563 C 324.796 306.818,325.745 306.563,326.445 306.996 C 327.299 307.523,327.277 308.223,326.380 309.120 M63.437 313.229 C 62.246 314.421,59.858 312.491,60.746 311.055 C 61.273 310.201,61.973 310.223,62.870 311.120 C 63.606 311.856,63.861 312.805,63.437 313.229 M79.000 314.000 C 77.833 315.167,77.500 314.833,77.500 312.500 C 77.500 310.167,77.833 309.833,79.000 311.000 C 80.167 312.167,80.167 312.833,79.000 314.000 M316.380 312.870 C 314.775 314.475,313.148 313.235,314.336 311.313 C 314.796 310.568,315.745 310.313,316.445 310.746 C 317.299 311.273,317.277 311.973,316.380 312.870 M78.750 318.542 C 78.750 320.169,77.264 321.252,76.055 320.505 C 74.762 319.706,75.877 317.500,77.574 317.500 C 78.221 317.500,78.750 317.969,78.750 318.542 M86.380 321.620 C 84.775 323.225,83.148 321.985,84.336 320.063 C 84.796 319.318,85.745 319.063,86.445 319.496 C 87.299 320.023,87.277 320.723,86.380 321.620 M91.438 323.125 C 91.438 323.778,90.833 324.514,90.094 324.760 C 89.355 325.007,88.750 324.271,88.750 323.125 C 88.750 321.979,89.355 321.243,90.094 321.490 C 90.833 321.736,91.438 322.472,91.438 323.125 M96.010 326.344 C 95.764 327.083,95.028 327.688,94.375 327.688 C 93.722 327.688,92.986 327.083,92.740 326.344 C 92.493 325.605,93.229 325.000,94.375 325.000 C 95.521 325.000,96.257 325.605,96.010 326.344 M86.250 328.125 C 86.250 329.156,85.721 330.000,85.074 330.000 C 83.498 330.000,82.369 328.048,83.367 327.049 C 84.775 325.642,86.250 326.192,86.250 328.125 M300.000 328.125 C 300.000 329.156,299.438 330.000,298.750 330.000 C 298.063 330.000,297.500 329.156,297.500 328.125 C 297.500 327.094,298.063 326.250,298.750 326.250 C 299.438 326.250,300.000 327.094,300.000 328.125 M101.822 329.914 C 102.746 331.409,100.395 332.891,98.730 331.862 C 97.332 330.998,98.249 328.750,100.000 328.750 C 100.606 328.750,101.426 329.274,101.822 329.914 M91.250 331.875 C 91.250 332.906,90.688 333.750,90.000 333.750 C 89.313 333.750,88.750 332.906,88.750 331.875 C 88.750 330.844,89.313 330.000,90.000 330.000 C 90.688 330.000,91.250 330.844,91.250 331.875 M95.937 335.729 C 94.746 336.921,92.358 334.991,93.246 333.555 C 93.773 332.701,94.473 332.723,95.370 333.620 C 96.106 334.356,96.361 335.305,95.937 335.729 M105.188 334.375 C 105.188 335.028,104.583 335.764,103.844 336.010 C 103.105 336.257,102.500 335.521,102.500 334.375 C 102.500 333.229,103.105 332.493,103.844 332.740 C 104.583 332.986,105.188 333.722,105.188 334.375 M291.010 335.094 C 290.764 335.833,290.028 336.438,289.375 336.438 C 288.722 336.438,287.986 335.833,287.740 335.094 C 287.493 334.355,288.229 333.750,289.375 333.750 C 290.521 333.750,291.257 334.355,291.010 335.094 M110.000 337.292 C 110.000 338.919,108.514 340.002,107.305 339.255 C 106.012 338.456,107.127 336.250,108.824 336.250 C 109.471 336.250,110.000 336.719,110.000 337.292 M115.000 341.324 C 115.000 341.971,114.156 342.500,113.125 342.500 C 111.192 342.500,110.642 341.025,112.049 339.617 C 113.048 338.619,115.000 339.748,115.000 341.324 M120.000 343.824 C 120.000 344.471,119.156 345.000,118.125 345.000 C 116.192 345.000,115.642 343.525,117.049 342.117 C 118.048 341.119,120.000 342.248,120.000 343.824 M276.250 343.824 C 276.250 344.471,275.406 345.000,274.375 345.000 C 272.442 345.000,271.892 343.525,273.299 342.117 C 274.298 341.119,276.250 342.248,276.250 343.824 M110.130 346.620 C 108.525 348.225,106.898 346.985,108.086 345.063 C 108.546 344.318,109.495 344.063,110.195 344.496 C 111.049 345.023,111.027 345.723,110.130 346.620 M123.750 344.986 C 123.750 346.906,119.676 351.197,118.527 350.487 C 116.823 349.434,117.372 347.500,119.375 347.500 C 120.406 347.500,121.250 346.656,121.250 345.625 C 121.250 344.594,121.813 343.750,122.500 343.750 C 123.188 343.750,123.750 344.306,123.750 344.986 M129.760 347.594 C 129.514 348.333,128.778 348.938,128.125 348.938 C 127.472 348.938,126.736 348.333,126.490 347.594 C 126.243 346.855,126.979 346.250,128.125 346.250 C 129.271 346.250,130.007 346.855,129.760 347.594 M126.250 352.574 C 126.250 353.221,125.406 353.750,124.375 353.750 C 122.442 353.750,121.892 352.275,123.299 350.867 C 124.298 349.869,126.250 350.998,126.250 352.574 M135.000 351.250 C 135.000 351.938,134.156 352.500,133.125 352.500 C 132.094 352.500,131.250 351.938,131.250 351.250 C 131.250 350.563,132.094 350.000,133.125 350.000 C 134.156 350.000,135.000 350.563,135.000 351.250 M140.000 353.125 C 140.000 354.156,139.471 355.000,138.824 355.000 C 137.248 355.000,136.119 353.048,137.117 352.049 C 138.525 350.642,140.000 351.192,140.000 353.125 M145.188 354.375 C 145.188 355.028,144.583 355.764,143.844 356.010 C 143.105 356.257,142.500 355.521,142.500 354.375 C 142.500 353.229,143.105 352.493,143.844 352.740 C 144.583 352.986,145.188 353.722,145.188 354.375 M151.250 355.625 C 151.250 356.656,150.688 357.500,150.000 357.500 C 149.313 357.500,148.750 356.656,148.750 355.625 C 148.750 354.594,149.313 353.750,150.000 353.750 C 150.688 353.750,151.250 354.594,151.250 355.625 M251.010 355.094 C 250.764 355.833,250.028 356.438,249.375 356.438 C 248.722 356.438,247.986 355.833,247.740 355.094 C 247.493 354.355,248.229 353.750,249.375 353.750 C 250.521 353.750,251.257 354.355,251.010 355.094 M156.250 357.574 C 156.250 358.221,155.406 358.750,154.375 358.750 C 152.442 358.750,151.892 357.275,153.299 355.867 C 154.298 354.869,156.250 355.998,156.250 357.574 M161.654 359.499 C 161.173 360.752,160.493 360.993,159.693 360.193 C 158.261 358.761,159.647 355.884,161.282 356.895 C 161.892 357.272,162.059 358.444,161.654 359.499 M146.344 360.344 C 146.189 361.838,144.475 361.549,143.938 359.938 C 143.662 359.113,144.113 358.663,144.938 358.938 C 145.762 359.212,146.395 359.845,146.344 360.344 M167.500 361.324 C 167.500 361.971,166.656 362.500,165.625 362.500 C 163.692 362.500,163.142 361.025,164.549 359.617 C 165.548 358.619,167.500 359.748,167.500 361.324 M230.000 360.625 C 230.000 361.656,229.471 362.500,228.824 362.500 C 227.248 362.500,226.119 360.548,227.117 359.549 C 228.525 358.142,230.000 358.692,230.000 360.625 M153.750 361.875 C 153.750 362.906,153.188 363.750,152.500 363.750 C 151.813 363.750,151.250 362.906,151.250 361.875 C 151.250 360.844,151.813 360.000,152.500 360.000 C 153.188 360.000,153.750 360.844,153.750 361.875 M172.688 361.875 C 172.688 362.528,172.083 363.264,171.344 363.510 C 170.605 363.757,170.000 363.021,170.000 361.875 C 170.000 360.729,170.605 359.993,171.344 360.240 C 172.083 360.486,172.688 361.222,172.688 361.875 M223.938 361.875 C 223.938 362.528,223.333 363.264,222.594 363.510 C 221.855 363.757,221.250 363.021,221.250 361.875 C 221.250 360.729,221.855 359.993,222.594 360.240 C 223.333 360.486,223.938 361.222,223.938 361.875 M177.594 362.844 C 177.439 364.338,175.725 364.049,175.188 362.438 C 174.913 361.613,175.362 361.163,176.188 361.438 C 177.013 361.712,177.645 362.345,177.594 362.844 M183.750 362.426 C 183.750 363.901,181.312 365.479,180.417 364.583 C 179.521 363.688,181.099 361.250,182.574 361.250 C 183.221 361.250,183.750 361.779,183.750 362.426 M190.000 363.125 C 190.000 364.156,189.438 365.000,188.750 365.000 C 188.063 365.000,187.500 364.156,187.500 363.125 C 187.500 362.094,188.063 361.250,188.750 361.250 C 189.438 361.250,190.000 362.094,190.000 363.125 M211.380 364.120 C 209.775 365.725,208.148 364.485,209.336 362.563 C 209.796 361.818,210.745 361.563,211.445 361.996 C 212.299 362.523,212.277 363.223,211.380 364.120 M218.510 362.594 C 218.264 363.333,217.528 363.938,216.875 363.938 C 216.222 363.938,215.486 363.333,215.240 362.594 C 214.993 361.855,215.729 361.250,216.875 361.250 C 218.021 361.250,218.757 361.855,218.510 362.594 M163.437 365.729 C 162.246 366.921,159.858 364.991,160.746 363.555 C 161.273 362.701,161.973 362.723,162.870 363.620 C 163.606 364.356,163.861 365.305,163.437 365.729 M201.250 363.750 C 201.250 364.438,200.406 365.000,199.375 365.000 C 198.344 365.000,197.500 364.438,197.500 363.750 C 197.500 363.063,198.344 362.500,199.375 362.500 C 200.406 362.500,201.250 363.063,201.250 363.750 M175.130 367.870 C 173.525 369.475,171.898 368.235,173.086 366.313 C 173.546 365.568,174.495 365.313,175.195 365.746 C 176.049 366.273,176.027 366.973,175.130 367.870 " stroke="none" fill="#000000" fill-rule="evenodd"></path></g></svg>