<?xml version="1.0" encoding="UTF-8"?>
<!DOCTYPE svg PUBLIC "-//W3C//DTD SVG 1.1//EN" "http://www.w3.org/Graphics/SVG/1.1/DTD/svg11.dtd">
<svg xmlns="http://www.w3.org/2000/svg" version="1.1" width="484px" height="247px" style="shape-rendering:geometricPrecision; text-rendering:geometricPrecision; image-rendering:optimizeQuality; fill-rule:evenodd; clip-rule:evenodd" xmlns:xlink="http://www.w3.org/1999/xlink">
<g><path style="opacity:1" fill="#98e4e8" d="M 0.5,-0.5 C 0.833333,-0.5 1.16667,-0.5 1.5,-0.5C 1.5,2.5 1.5,5.5 1.5,8.5C 10.8333,8.5 20.1667,8.5 29.5,8.5C 29.5,5.5 29.5,2.5 29.5,-0.5C 30.1667,-0.5 30.8333,-0.5 31.5,-0.5C 31.5,2.5 31.5,5.5 31.5,8.5C 40.8333,8.5 50.1667,8.5 59.5,8.5C 59.5,5.5 59.5,2.5 59.5,-0.5C 60.1667,-0.5 60.8333,-0.5 61.5,-0.5C 61.5,2.5 61.5,5.5 61.5,8.5C 69.5,8.5 77.5,8.5 85.5,8.5C 80.5545,10.3061 75.8878,12.6394 71.5,15.5C 67.1846,17.6602 63.1846,20.3269 59.5,23.5C 59.5,19.1667 59.5,14.8333 59.5,10.5C 50.1667,10.5 40.8333,10.5 31.5,10.5C 31.5,19.8333 31.5,29.1667 31.5,38.5C 38.1667,38.5 44.8333,38.5 51.5,38.5C 49.6564,47.3606 48.9897,56.3606 49.5,65.5C 42.8772,64.6204 36.2105,64.287 29.5,64.5C 29.5,56.1667 29.5,47.8333 29.5,39.5C 20.1667,39.5 10.8333,39.5 1.5,39.5C 1.5,49.1667 1.5,58.8333 1.5,68.5C 7.16667,68.5 12.8333,68.5 18.5,68.5C 8.68349,75.8 2.68349,85.4667 0.5,97.5C 0.5,64.8333 0.5,32.1667 0.5,-0.5 Z"/></g>
<g><path style="opacity:1" fill="#9ff0f3" d="M 31.5,-0.5 C 40.8333,-0.5 50.1667,-0.5 59.5,-0.5C 59.5,2.5 59.5,5.5 59.5,8.5C 50.1667,8.5 40.8333,8.5 31.5,8.5C 31.5,5.5 31.5,2.5 31.5,-0.5 Z"/></g>
<g><path style="opacity:1" fill="#9ff0f3" d="M 1.5,-0.5 C 10.8333,-0.5 20.1667,-0.5 29.5,-0.5C 29.5,2.5 29.5,5.5 29.5,8.5C 20.1667,8.5 10.8333,8.5 1.5,8.5C 1.5,5.5 1.5,2.5 1.5,-0.5 Z"/></g>
<g><path style="opacity:1" fill="#9ff0f3" d="M 1.5,10.5 C 10.8333,10.5 20.1667,10.5 29.5,10.5C 29.5,19.8333 29.5,29.1667 29.5,38.5C 20.1667,38.5 10.8333,38.5 1.5,38.5C 1.5,29.1667 1.5,19.8333 1.5,10.5 Z"/></g>
<g><path style="opacity:1" fill="#9ff0f3" d="M 59.5,23.5 C 55.5335,27.7643 52.8668,32.7643 51.5,38.5C 44.8333,38.5 38.1667,38.5 31.5,38.5C 31.5,29.1667 31.5,19.8333 31.5,10.5C 40.8333,10.5 50.1667,10.5 59.5,10.5C 59.5,14.8333 59.5,19.1667 59.5,23.5 Z"/></g>
<g><path style="opacity:1" fill="#5379a6" d="M 85.5,8.5 C 89.7076,8.677 93.3743,10.0103 96.5,12.5C 93.4496,11.7054 90.4496,10.7054 87.5,9.5C 82.2205,11.7034 76.8872,13.7034 71.5,15.5C 75.8878,12.6394 80.5545,10.3061 85.5,8.5 Z"/></g>
<g><path style="opacity:1" fill="#293479" d="M 96.5,12.5 C 105.883,16.1005 113.717,21.7671 120,29.5C 121.664,32.3271 122.83,35.3271 123.5,38.5C 123.328,39.4916 123.662,40.1583 124.5,40.5C 124.5,41.5 124.5,42.5 124.5,43.5C 124.5,51.1667 124.5,58.8333 124.5,66.5C 131.471,65.7103 138.471,65.3769 145.5,65.5C 150.86,67.0878 155.86,69.4212 160.5,72.5C 164.294,75.953 167.294,79.953 169.5,84.5C 170.256,88.767 171.589,92.767 173.5,96.5C 172.131,102.741 171.464,109.074 171.5,115.5C 169.182,117.185 168.182,119.519 168.5,122.5C 168.41,125.152 169.076,127.485 170.5,129.5C 170.5,130.167 170.833,130.5 171.5,130.5C 173.35,139.177 171.017,146.177 164.5,151.5C 160.217,153.958 155.551,154.958 150.5,154.5C 150.517,156.565 150.85,158.565 151.5,160.5C 151.723,164.162 152.723,167.495 154.5,170.5C 155.057,175.165 156.39,179.498 158.5,183.5C 158.5,187.167 158.5,190.833 158.5,194.5C 157.833,195.5 157.167,196.5 156.5,197.5C 154.421,197.971 152.421,198.637 150.5,199.5C 146.267,199.539 142.267,200.205 138.5,201.5C 136.833,202.167 135.167,202.833 133.5,203.5C 131.833,203.5 130.167,203.5 128.5,203.5C 122.082,205.631 116.248,208.965 111,213.5C 110.503,216.146 110.336,218.813 110.5,221.5C 102.561,227.433 94.8945,233.766 87.5,240.5C 79.5785,234.387 71.9119,228.053 64.5,221.5C 64.6641,218.813 64.4974,216.146 64,213.5C 62.6703,212.418 61.1703,211.751 59.5,211.5C 56.5672,209.355 53.5672,207.188 50.5,205C 46.486,204.163 42.486,203.329 38.5,202.5C 36.7354,201.539 34.7354,201.205 32.5,201.5C 30.1617,199.96 27.4951,199.294 24.5,199.5C 19.4358,199.765 16.4358,197.431 15.5,192.5C 15.5,190.833 15.5,189.167 15.5,187.5C 17.8309,178.839 20.1642,170.173 22.5,161.5C 23.7384,159.786 24.405,157.786 24.5,155.5C 20.5956,154.508 16.5956,153.508 12.5,152.5C 8.05652,150.658 5.22319,147.324 4,142.5C 3.15386,135.142 3.9872,127.975 6.5,121C 5.68314,119.51 4.84981,118.01 4,116.5C 3.50098,112.179 3.33432,107.846 3.5,103.5C 2.5,103.5 1.5,103.5 0.5,103.5C 0.5,101.5 0.5,99.5 0.5,97.5C 2.68349,85.4667 8.68349,75.8 18.5,68.5C 20.8333,67.8333 23.1667,67.1667 25.5,66.5C 33.6607,65.6273 41.6607,65.294 49.5,65.5C 48.9897,56.3606 49.6564,47.3606 51.5,38.5C 52.8668,32.7643 55.5335,27.7643 59.5,23.5C 63.1846,20.3269 67.1846,17.6602 71.5,15.5C 76.8872,13.7034 82.2205,11.7034 87.5,9.5C 90.4496,10.7054 93.4496,11.7054 96.5,12.5 Z"/></g>
<g><path style="opacity:1" fill="#9dedf0" d="M 61.5,-0.5 C 130.833,-0.5 200.167,-0.5 269.5,-0.5C 269.5,2.5 269.5,5.5 269.5,8.5C 260.161,8.33355 250.827,8.50021 241.5,9C 250.494,9.49977 259.494,9.66644 268.5,9.5C 268.5,18.8333 268.5,28.1667 268.5,37.5C 259.167,37.5 249.833,37.5 240.5,37.5C 240.666,28.4938 240.5,19.4938 240,10.5C 239.5,19.8274 239.334,29.1607 239.5,38.5C 220.164,38.6666 200.83,38.5 181.5,38C 180.681,28.911 180.181,19.7444 180,10.5C 179.5,19.8274 179.334,29.1607 179.5,38.5C 160.833,38.5 142.167,38.5 123.5,38.5C 122.83,35.3271 121.664,32.3271 120,29.5C 113.717,21.7671 105.883,16.1005 96.5,12.5C 93.3743,10.0103 89.7076,8.677 85.5,8.5C 77.5,8.5 69.5,8.5 61.5,8.5C 61.5,5.5 61.5,2.5 61.5,-0.5 Z"/></g>
<g><path style="opacity:1" fill="#93dde1" d="M 269.5,-0.5 C 269.833,-0.5 270.167,-0.5 270.5,-0.5C 270.223,2.44753 270.556,5.28086 271.5,8C 280.494,8.49977 289.494,8.66644 298.5,8.5C 298.5,5.5 298.5,2.5 298.5,-0.5C 299.167,-0.5 299.833,-0.5 300.5,-0.5C 300.5,2.5 300.5,5.5 300.5,8.5C 309.833,8.5 319.167,8.5 328.5,8.5C 328.5,5.5 328.5,2.5 328.5,-0.5C 329.167,-0.5 329.833,-0.5 330.5,-0.5C 330.5,2.5 330.5,5.5 330.5,8.5C 339.833,8.5 349.167,8.5 358.5,8.5C 358.5,5.5 358.5,2.5 358.5,-0.5C 359.167,-0.5 359.833,-0.5 360.5,-0.5C 360.5,2.5 360.5,5.5 360.5,8.5C 369.833,8.5 379.167,8.5 388.5,8.5C 388.5,5.5 388.5,2.5 388.5,-0.5C 389.167,-0.5 389.833,-0.5 390.5,-0.5C 390.5,2.5 390.5,5.5 390.5,8.5C 399.833,8.5 409.167,8.5 418.5,8.5C 418.5,5.5 418.5,2.5 418.5,-0.5C 419.167,-0.5 419.833,-0.5 420.5,-0.5C 420.5,2.5 420.5,5.5 420.5,8.5C 457.833,9.16667 457.833,9.83333 420.5,10.5C 420.5,25.5 420.5,40.5 420.5,55.5C 431.014,55.1724 441.347,55.5058 451.5,56.5C 423.5,56.5 395.5,56.5 367.5,56.5C 374.313,55.5088 381.313,55.1755 388.5,55.5C 388.5,50.1667 388.5,44.8333 388.5,39.5C 379.167,39.5 369.833,39.5 360.5,39.5C 360.5,49.1667 360.5,58.8333 360.5,68.5C 362.5,68.5 364.5,68.5 366.5,68.5C 366.662,70.5273 366.495,72.5273 366,74.5C 365.184,73.1772 364.017,72.5106 362.5,72.5C 359.545,70.8777 356.878,68.8777 354.5,66.5C 356.117,67.038 357.784,67.3713 359.5,67.5C 359.5,58.5 359.5,49.5 359.5,40.5C 350.167,40.5 340.833,40.5 331.5,40.5C 331.5,45.5 331.5,50.5 331.5,55.5C 333.933,55.2729 335.599,56.2729 336.5,58.5C 330.533,55.828 324.2,54.828 317.5,55.5C 320.962,54.5184 324.629,54.185 328.5,54.5C 328.5,49.8333 328.5,45.1667 328.5,40.5C 319.167,40.5 309.833,40.5 300.5,40.5C 299.866,48.9032 300.533,56.9032 302.5,64.5C 302.167,65.1667 301.833,65.8333 301.5,66.5C 300.391,66.5569 299.391,66.8902 298.5,67.5C 298.5,58.5 298.5,49.5 298.5,40.5C 289.167,40.5 279.833,40.5 270.5,40.5C 270.5,45.5 270.5,50.5 270.5,55.5C 273.059,55.1984 275.393,55.5318 277.5,56.5C 261.167,56.5 244.833,56.5 228.5,56.5C 231.625,55.5206 234.958,55.1872 238.5,55.5C 238.5,50.5 238.5,45.5 238.5,40.5C 229.5,40.5 220.5,40.5 211.5,40.5C 211.185,44.3714 211.518,48.0381 212.5,51.5C 211.833,52.5 211.167,53.5 210.5,54.5C 210.167,54.5 209.833,54.5 209.5,54.5C 209.5,49.8333 209.5,45.1667 209.5,40.5C 200.167,40.5 190.833,40.5 181.5,40.5C 181.5,49.5 181.5,58.5 181.5,67.5C 184.5,67.5 187.5,67.5 190.5,67.5C 186.538,70.4884 182.538,73.4884 178.5,76.5C 178.5,74.1667 178.5,71.8333 178.5,69.5C 172.158,69.3338 165.825,69.5005 159.5,70C 160.252,70.6708 160.586,71.5041 160.5,72.5C 155.86,69.4212 150.86,67.0878 145.5,65.5C 145.5,65.1667 145.5,64.8333 145.5,64.5C 146.833,64.5 148.167,64.5 149.5,64.5C 149.816,56.2476 149.482,48.081 148.5,40C 140.323,39.1772 132.323,39.3439 124.5,40.5C 123.662,40.1583 123.328,39.4916 123.5,38.5C 142.167,38.5 160.833,38.5 179.5,38.5C 179.334,29.1607 179.5,19.8274 180,10.5C 180.181,19.7444 180.681,28.911 181.5,38C 200.83,38.5 220.164,38.6666 239.5,38.5C 239.334,29.1607 239.5,19.8274 240,10.5C 240.5,19.4938 240.666,28.4938 240.5,37.5C 249.833,37.5 259.167,37.5 268.5,37.5C 268.5,28.1667 268.5,18.8333 268.5,9.5C 259.494,9.66644 250.494,9.49977 241.5,9C 250.827,8.50021 260.161,8.33355 269.5,8.5C 269.5,5.5 269.5,2.5 269.5,-0.5 Z"/></g>
<g><path style="opacity:1" fill="#9ff0f3" d="M 360.5,10.5 C 369.833,10.5 379.167,10.5 388.5,10.5C 388.5,19.8333 388.5,29.1667 388.5,38.5C 379.167,38.5 369.833,38.5 360.5,38.5C 360.5,29.1667 360.5,19.8333 360.5,10.5 Z"/></g>
<g><path style="opacity:1" fill="#9ff0f3" d="M 330.5,10.5 C 339.833,10.5 349.167,10.5 358.5,10.5C 358.5,19.8333 358.5,29.1667 358.5,38.5C 349.167,38.5 339.833,38.5 330.5,38.5C 330.5,29.1667 330.5,19.8333 330.5,10.5 Z"/></g>
<g><path style="opacity:1" fill="#9ff0f3" d="M 300.5,10.5 C 309.833,10.5 319.167,10.5 328.5,10.5C 328.5,19.8333 328.5,29.1667 328.5,38.5C 319.167,38.5 309.833,38.5 300.5,38.5C 300.5,29.1667 300.5,19.8333 300.5,10.5 Z"/></g>
<g><path style="opacity:1" fill="#9ff0f3" d="M 270.5,10.5 C 279.833,10.5 289.167,10.5 298.5,10.5C 298.5,19.8333 298.5,29.1667 298.5,38.5C 289.494,38.6664 280.494,38.4998 271.5,38C 270.515,28.9172 270.182,19.7506 270.5,10.5 Z"/></g>
<g><path style="opacity:1" fill="#9ff0f3" d="M 390.5,-0.5 C 399.833,-0.5 409.167,-0.5 418.5,-0.5C 418.5,2.5 418.5,5.5 418.5,8.5C 409.167,8.5 399.833,8.5 390.5,8.5C 390.5,5.5 390.5,2.5 390.5,-0.5 Z"/></g>
<g><path style="opacity:1" fill="#9ff0f3" d="M 360.5,-0.5 C 369.833,-0.5 379.167,-0.5 388.5,-0.5C 388.5,2.5 388.5,5.5 388.5,8.5C 379.167,8.5 369.833,8.5 360.5,8.5C 360.5,5.5 360.5,2.5 360.5,-0.5 Z"/></g>
<g><path style="opacity:1" fill="#9ff0f3" d="M 330.5,-0.5 C 339.833,-0.5 349.167,-0.5 358.5,-0.5C 358.5,2.5 358.5,5.5 358.5,8.5C 349.167,8.5 339.833,8.5 330.5,8.5C 330.5,5.5 330.5,2.5 330.5,-0.5 Z"/></g>
<g><path style="opacity:1" fill="#9ff0f3" d="M 300.5,-0.5 C 309.833,-0.5 319.167,-0.5 328.5,-0.5C 328.5,2.5 328.5,5.5 328.5,8.5C 319.167,8.5 309.833,8.5 300.5,8.5C 300.5,5.5 300.5,2.5 300.5,-0.5 Z"/></g>
<g><path style="opacity:1" fill="#9ff0f3" d="M 270.5,-0.5 C 279.833,-0.5 289.167,-0.5 298.5,-0.5C 298.5,2.5 298.5,5.5 298.5,8.5C 289.494,8.66644 280.494,8.49977 271.5,8C 270.556,5.28086 270.223,2.44753 270.5,-0.5 Z"/></g>
<g><path style="opacity:1" fill="#9ff0f3" d="M 390.5,10.5 C 399.833,10.5 409.167,10.5 418.5,10.5C 418.5,19.8333 418.5,29.1667 418.5,38.5C 409.167,38.5 399.833,38.5 390.5,38.5C 390.5,29.1667 390.5,19.8333 390.5,10.5 Z"/></g>
<g><path style="opacity:1" fill="#9dedf0" d="M 420.5,-0.5 C 441.5,-0.5 462.5,-0.5 483.5,-0.5C 483.5,52.1667 483.5,104.833 483.5,157.5C 482.5,157.5 481.5,157.5 480.5,157.5C 479.833,120.167 479.167,120.167 478.5,157.5C 469.167,157.5 459.833,157.5 450.5,157.5C 450.5,141.833 450.5,126.167 450.5,110.5C 456.026,110.821 461.36,110.488 466.5,109.5C 467.496,94.0089 467.83,78.3422 467.5,62.5C 462.5,62.5 457.5,62.5 452.5,62.5C 452.167,62.5 451.833,62.5 451.5,62.5C 451.5,60.5 451.5,58.5 451.5,56.5C 441.347,55.5058 431.014,55.1724 420.5,55.5C 420.5,40.5 420.5,25.5 420.5,10.5C 457.833,9.83333 457.833,9.16667 420.5,8.5C 420.5,5.5 420.5,2.5 420.5,-0.5 Z"/></g>
<g><path style="opacity:1" fill="#a5466d" d="M 88.5,24.5 C 86.0728,23.7211 86.0728,22.5545 88.5,21C 86.5753,21.1349 84.5753,21.3016 82.5,21.5C 85.7312,18.878 89.0646,18.878 92.5,21.5C 90.6684,22.0568 89.3351,23.0568 88.5,24.5 Z"/></g>
<g><path style="opacity:1" fill="#ea4b62" d="M 88.5,24.5 C 89.1667,24.5 89.8333,24.5 90.5,24.5C 90.6107,25.1174 90.944,25.6174 91.5,26C 89,26.8854 86.6667,28.0521 84.5,29.5C 94.2824,30.5513 94.6157,32.218 85.5,34.5C 84.3296,35.6939 84.663,36.3605 86.5,36.5C 86.1667,37.1667 85.8333,37.8333 85.5,38.5C 80.4246,38.6488 75.4246,39.3155 70.5,40.5C 71.0222,37.7471 71.8555,35.0804 73,32.5C 76.0024,28.6662 79.1691,24.9995 82.5,21.5C 84.5753,21.3016 86.5753,21.1349 88.5,21C 86.0728,22.5545 86.0728,23.7211 88.5,24.5 Z"/></g>
<g><path style="opacity:1" fill="#f4ecf1" d="M 82.5,21.5 C 79.1691,24.9995 76.0024,28.6662 73,32.5C 71.8555,35.0804 71.0222,37.7471 70.5,40.5C 69.8333,40.5 69.5,40.8333 69.5,41.5C 68.4863,42.6737 67.153,43.3404 65.5,43.5C 64.5269,45.9479 64.1936,48.6146 64.5,51.5C 65.8333,51.5 67.1667,51.5 68.5,51.5C 68.5,54.1667 68.5,56.8333 68.5,59.5C 65.8333,59.5 63.1667,59.5 60.5,59.5C 60.5,54.8333 60.5,50.1667 60.5,45.5C 63.2678,33.3956 70.6012,25.3956 82.5,21.5 Z"/></g>
<g><path style="opacity:1" fill="#7e3a6c" d="M 90.5,24.5 C 92.9363,24.7489 94.9363,25.7489 96.5,27.5C 93.8929,28.3184 91.2263,28.8184 88.5,29C 91.4767,29.4813 94.1433,30.6479 96.5,32.5C 93.5,33.3333 90.5,34.1667 87.5,35C 89.3817,35.1981 91.0484,35.6981 92.5,36.5C 90.5,36.5 88.5,36.5 86.5,36.5C 84.663,36.3605 84.3296,35.6939 85.5,34.5C 94.6157,32.218 94.2824,30.5513 84.5,29.5C 86.6667,28.0521 89,26.8854 91.5,26C 90.944,25.6174 90.6107,25.1174 90.5,24.5 Z"/></g>
<g><path style="opacity:1" fill="#be4164" d="M 86.5,36.5 C 88.5,36.5 90.5,36.5 92.5,36.5C 99.0952,37.4205 105.429,39.2539 111.5,42C 112.127,43.7378 112.46,45.5711 112.5,47.5C 112.444,49.6397 111.777,51.3064 110.5,52.5C 110.81,49.2869 110.477,46.2869 109.5,43.5C 104.955,41.7899 100.288,40.4565 95.5,39.5C 92.3752,38.5206 89.0419,38.1872 85.5,38.5C 85.8333,37.8333 86.1667,37.1667 86.5,36.5 Z"/></g>
<g><path style="opacity:1" fill="#2e3277" d="M 95.5,39.5 C 100.288,40.4565 104.955,41.7899 109.5,43.5C 109.5,45.8333 109.5,48.1667 109.5,50.5C 105.524,49.7048 101.524,49.0381 97.5,48.5C 94.1833,47.8348 90.6833,47.5014 87,47.5C 81.8979,47.2933 77.0645,47.96 72.5,49.5C 70.901,49.2322 69.5676,49.5655 68.5,50.5C 67.5,50.5 66.5,50.5 65.5,50.5C 65.5,48.1667 65.5,45.8333 65.5,43.5C 67.153,43.3404 68.4863,42.6737 69.5,41.5C 78.1052,40.1803 86.7719,39.5137 95.5,39.5 Z"/></g>
<g><path style="opacity:1" fill="#9ff0f3" d="M 29.5,64.5 C 27.847,64.6596 26.5137,65.3263 25.5,66.5C 23.1667,67.1667 20.8333,67.8333 18.5,68.5C 12.8333,68.5 7.16667,68.5 1.5,68.5C 1.5,58.8333 1.5,49.1667 1.5,39.5C 10.8333,39.5 20.1667,39.5 29.5,39.5C 29.5,47.8333 29.5,56.1667 29.5,64.5 Z"/></g>
<g><path style="opacity:1" fill="#5f3871" d="M 85.5,38.5 C 89.0419,38.1872 92.3752,38.5206 95.5,39.5C 86.7719,39.5137 78.1052,40.1803 69.5,41.5C 69.5,40.8333 69.8333,40.5 70.5,40.5C 75.4246,39.3155 80.4246,38.6488 85.5,38.5 Z"/></g>
<g><path style="opacity:1" fill="#9eeef2" d="M 145.5,64.5 C 138.789,64.287 132.123,64.6204 125.5,65.5C 125.825,57.9809 125.492,50.6476 124.5,43.5C 124.5,42.5 124.5,41.5 124.5,40.5C 132.323,39.3439 140.323,39.1772 148.5,40C 149.482,48.081 149.816,56.2476 149.5,64.5C 148.167,64.5 146.833,64.5 145.5,64.5 Z"/></g>
<g><path style="opacity:1" fill="#9ff0f3" d="M 151.5,40.5 C 160.833,40.5 170.167,40.5 179.5,40.5C 179.5,49.8333 179.5,59.1667 179.5,68.5C 172.159,68.6663 164.826,68.4997 157.5,68C 155.744,67.7978 154.078,67.2978 152.5,66.5C 151.529,57.888 151.196,49.2214 151.5,40.5 Z"/></g>
<g><path style="opacity:1" fill="#9feff3" d="M 209.5,54.5 C 203.34,59.0804 197.007,63.4138 190.5,67.5C 187.5,67.5 184.5,67.5 181.5,67.5C 181.5,58.5 181.5,49.5 181.5,40.5C 190.833,40.5 200.167,40.5 209.5,40.5C 209.5,45.1667 209.5,49.8333 209.5,54.5 Z"/></g>
<g><path style="opacity:1" fill="#9eeff2" d="M 228.5,56.5 C 227.849,57.0906 227.182,57.7573 226.5,58.5C 225.583,57.8728 224.583,57.5394 223.5,57.5C 220.996,56.4161 218.663,55.0828 216.5,53.5C 215.713,51.8958 214.38,51.2291 212.5,51.5C 211.518,48.0381 211.185,44.3714 211.5,40.5C 220.5,40.5 229.5,40.5 238.5,40.5C 238.5,45.5 238.5,50.5 238.5,55.5C 234.958,55.1872 231.625,55.5206 228.5,56.5 Z"/></g>
<g><path style="opacity:1" fill="#a0f1f3" d="M 241.5,40.5 C 250.5,40.5 259.5,40.5 268.5,40.5C 268.5,45.5 268.5,50.5 268.5,55.5C 259.5,55.5 250.5,55.5 241.5,55.5C 241.5,50.5 241.5,45.5 241.5,40.5 Z"/></g>
<g><path style="opacity:1" fill="#9feff2" d="M 298.5,67.5 C 297.167,69.5 295.5,71.1667 293.5,72.5C 293.5,69.1667 293.5,65.8333 293.5,62.5C 288.167,62.5 282.833,62.5 277.5,62.5C 277.5,60.5 277.5,58.5 277.5,56.5C 275.393,55.5318 273.059,55.1984 270.5,55.5C 270.5,50.5 270.5,45.5 270.5,40.5C 279.833,40.5 289.167,40.5 298.5,40.5C 298.5,49.5 298.5,58.5 298.5,67.5 Z"/></g>
<g><path style="opacity:1" fill="#9eeff2" d="M 317.5,55.5 C 312.115,57.6995 307.115,60.6995 302.5,64.5C 300.533,56.9032 299.866,48.9032 300.5,40.5C 309.833,40.5 319.167,40.5 328.5,40.5C 328.5,45.1667 328.5,49.8333 328.5,54.5C 324.629,54.185 320.962,54.5184 317.5,55.5 Z"/></g>
<g><path style="opacity:1" fill="#a0edf1" d="M 354.5,66.5 C 350.931,64.8815 347.264,63.5481 343.5,62.5C 340.669,61.9213 338.336,60.588 336.5,58.5C 335.599,56.2729 333.933,55.2729 331.5,55.5C 331.5,50.5 331.5,45.5 331.5,40.5C 340.833,40.5 350.167,40.5 359.5,40.5C 359.5,49.5 359.5,58.5 359.5,67.5C 357.784,67.3713 356.117,67.038 354.5,66.5 Z"/></g>
<g><path style="opacity:1" fill="#9ff0f3" d="M 367.5,56.5 C 366.517,60.2984 366.183,64.2984 366.5,68.5C 364.5,68.5 362.5,68.5 360.5,68.5C 360.5,58.8333 360.5,49.1667 360.5,39.5C 369.833,39.5 379.167,39.5 388.5,39.5C 388.5,44.8333 388.5,50.1667 388.5,55.5C 381.313,55.1755 374.313,55.5088 367.5,56.5 Z"/></g>
<g><path style="opacity:1" fill="#9ff0f3" d="M 390.5,40.5 C 399.833,40.5 409.167,40.5 418.5,40.5C 418.5,45.5 418.5,50.5 418.5,55.5C 409.167,55.5 399.833,55.5 390.5,55.5C 390.5,50.5 390.5,45.5 390.5,40.5 Z"/></g>
<g><path style="opacity:1" fill="#ba4164" d="M 97.5,48.5 C 89.149,48.4815 80.8156,48.8148 72.5,49.5C 77.0645,47.96 81.8979,47.2933 87,47.5C 90.6833,47.5014 94.1833,47.8348 97.5,48.5 Z"/></g>
<g><path style="opacity:1" fill="#ae94b2" d="M 65.5,43.5 C 65.5,45.8333 65.5,48.1667 65.5,50.5C 66.5,50.5 67.5,50.5 68.5,50.5C 68.5,50.8333 68.5,51.1667 68.5,51.5C 67.1667,51.5 65.8333,51.5 64.5,51.5C 64.1936,48.6146 64.5269,45.9479 65.5,43.5 Z"/></g>
<g><path style="opacity:1" fill="#e44660" d="M 97.5,48.5 C 94.023,49.3227 90.3563,49.8227 86.5,50C 85.1667,50.6667 85.1667,51.3333 86.5,52C 87.7932,52.49 89.1266,52.6567 90.5,52.5C 92.5643,53.8676 94.8976,54.8676 97.5,55.5C 95.384,56.972 93.0507,58.1386 90.5,59C 83.1742,59.4997 75.8409,59.6663 68.5,59.5C 68.5,56.8333 68.5,54.1667 68.5,51.5C 68.5,51.1667 68.5,50.8333 68.5,50.5C 69.5676,49.5655 70.901,49.2322 72.5,49.5C 80.8156,48.8148 89.149,48.4815 97.5,48.5 Z"/></g>
<g><path style="opacity:1" fill="#873b6b" d="M 109.5,43.5 C 110.477,46.2869 110.81,49.2869 110.5,52.5C 104.99,51.9418 99.4901,51.2751 94,50.5C 91.8333,50.6667 89.6667,50.8333 87.5,51C 88.7375,51.2321 89.7375,51.7321 90.5,52.5C 89.1266,52.6567 87.7932,52.49 86.5,52C 85.1667,51.3333 85.1667,50.6667 86.5,50C 90.3563,49.8227 94.023,49.3227 97.5,48.5C 101.524,49.0381 105.524,49.7048 109.5,50.5C 109.5,48.1667 109.5,45.8333 109.5,43.5 Z"/></g>
<g><path style="opacity:1" fill="#557ba8" d="M 212.5,51.5 C 214.38,51.2291 215.713,51.8958 216.5,53.5C 215.504,53.5858 214.671,53.2524 214,52.5C 213.184,53.8228 212.017,54.4894 210.5,54.5C 211.167,53.5 211.833,52.5 212.5,51.5 Z"/></g>
<g><path style="opacity:1" fill="#273379" d="M 216.5,53.5 C 218.663,55.0828 220.996,56.4161 223.5,57.5C 224.879,59.5969 226.545,59.9302 228.5,58.5C 244.422,57.5159 260.422,57.1825 276.5,57.5C 276.216,59.4147 276.549,61.0813 277.5,62.5C 277.5,62.8333 277.5,63.1667 277.5,63.5C 277.495,74.8766 276.828,86.2099 275.5,97.5C 274.931,102.458 273.265,107.125 270.5,111.5C 269.305,111.866 268.639,112.699 268.5,114C 270.711,117.378 272.711,120.878 274.5,124.5C 275.392,131.049 276.725,137.382 278.5,143.5C 279.463,156.451 279.796,169.451 279.5,182.5C 253.167,182.5 226.833,182.5 200.5,182.5C 195.833,182.5 191.167,182.5 186.5,182.5C 186.374,169.817 186.707,157.15 187.5,144.5C 187.5,143.833 187.5,143.167 187.5,142.5C 188.4,137.668 189.066,132.668 189.5,127.5C 190.26,123.313 192.094,119.646 195,116.5C 195.49,115.207 195.657,113.873 195.5,112.5C 195.245,110.033 194.245,108.033 192.5,106.5C 192.443,105.391 192.11,104.391 191.5,103.5C 191.196,100.478 190.696,97.4781 190,94.5C 185.557,91.3657 181.057,88.3657 176.5,85.5C 175.019,84.5788 173.686,83.4121 172.5,82C 173.862,79.4833 175.862,77.65 178.5,76.5C 182.538,73.4884 186.538,70.4884 190.5,67.5C 197.007,63.4138 203.34,59.0804 209.5,54.5C 209.833,54.5 210.167,54.5 210.5,54.5C 212.017,54.4894 213.184,53.8228 214,52.5C 214.671,53.2524 215.504,53.5858 216.5,53.5 Z"/></g>
<g><path style="opacity:1" fill="#3e5891" d="M 228.5,56.5 C 244.833,56.5 261.167,56.5 277.5,56.5C 277.5,58.5 277.5,60.5 277.5,62.5C 276.549,61.0813 276.216,59.4147 276.5,57.5C 260.422,57.1825 244.422,57.5159 228.5,58.5C 228.5,57.8333 228.5,57.1667 228.5,56.5 Z"/></g>
<g><path style="opacity:1" fill="#2a3379" d="M 317.5,55.5 C 324.2,54.828 330.533,55.828 336.5,58.5C 338.336,60.588 340.669,61.9213 343.5,62.5C 348.438,66.9359 353.271,71.6025 358,76.5C 361.155,80.4802 363.655,84.8136 365.5,89.5C 365.312,91.1033 365.812,92.4366 367,93.5C 367.499,87.8431 367.666,82.1764 367.5,76.5C 367.5,69.8333 367.5,63.1667 367.5,56.5C 395.5,56.5 423.5,56.5 451.5,56.5C 451.5,58.5 451.5,60.5 451.5,62.5C 451.5,75.8333 451.5,89.1667 451.5,102.5C 445.642,102.178 439.975,102.511 434.5,103.5C 434.667,129.835 434.5,156.169 434,182.5C 422.915,183.487 411.748,183.821 400.5,183.5C 400.5,182.833 400.167,182.5 399.5,182.5C 394.833,182.5 390.167,182.5 385.5,182.5C 385.831,157.994 385.498,133.661 384.5,109.5C 384.5,107.5 384.5,105.5 384.5,103.5C 378.833,103.5 373.167,103.5 367.5,103.5C 367.5,114.5 367.5,125.5 367.5,136.5C 367.5,144.507 365.333,151.84 361,158.5C 353.895,167.443 345.728,175.11 336.5,181.5C 332.263,182.881 327.93,183.881 323.5,184.5C 312.831,182.496 303.831,177.496 296.5,169.5C 296.167,168.5 295.5,167.833 294.5,167.5C 294.5,166.833 294.167,166.5 293.5,166.5C 290.469,162.476 287.469,158.476 284.5,154.5C 282.058,148.763 281.058,142.763 281.5,136.5C 280.899,119.367 281.899,102.367 284.5,85.5C 284.845,82.8021 286.178,80.8021 288.5,79.5C 290.587,78.4154 291.92,76.7488 292.5,74.5C 296.1,72.5698 299.1,69.9031 301.5,66.5C 301.833,65.8333 302.167,65.1667 302.5,64.5C 307.115,60.6995 312.115,57.6995 317.5,55.5 Z"/></g>
<g><path style="opacity:1" fill="#7a9fbc" d="M 228.5,56.5 C 228.5,57.1667 228.5,57.8333 228.5,58.5C 226.545,59.9302 224.879,59.5969 223.5,57.5C 224.583,57.5394 225.583,57.8728 226.5,58.5C 227.182,57.7573 227.849,57.0906 228.5,56.5 Z"/></g>
<g><path style="opacity:1" fill="#5d5b92" d="M 60.5,45.5 C 60.5,50.1667 60.5,54.8333 60.5,59.5C 63.1667,59.5 65.8333,59.5 68.5,59.5C 65.7814,60.913 62.7814,61.5797 59.5,61.5C 59.1786,55.9738 59.5119,50.6405 60.5,45.5 Z"/></g>
<g><path style="opacity:1" fill="#b94165" d="M 96.5,64.5 C 92.7016,65.4834 88.7016,65.8168 84.5,65.5C 81.1174,64.1109 78.1174,64.7776 75.5,67.5C 74.6618,67.1583 74.3284,66.4916 74.5,65.5C 81.7382,63.29 89.0716,62.9567 96.5,64.5 Z"/></g>
<g><path style="opacity:1" fill="#4d70a0" d="M 29.5,64.5 C 36.2105,64.287 42.8772,64.6204 49.5,65.5C 41.6607,65.294 33.6607,65.6273 25.5,66.5C 26.5137,65.3263 27.847,64.6596 29.5,64.5 Z"/></g>
<g><path style="opacity:1" fill="#e9475f" d="M 277.5,63.5 C 282.5,63.5 287.5,63.5 292.5,63.5C 292.5,66.8333 292.5,70.1667 292.5,73.5C 292.5,73.8333 292.5,74.1667 292.5,74.5C 290.413,75.5846 289.08,77.2512 288.5,79.5C 286.178,80.8021 284.845,82.8021 284.5,85.5C 283.883,85.6107 283.383,85.944 283,86.5C 281.843,90.7823 281.01,95.1157 280.5,99.5C 279.833,112.5 279.167,125.5 278.5,138.5C 278.221,133.417 276.888,128.751 274.5,124.5C 272.711,120.878 270.711,117.378 268.5,114C 268.639,112.699 269.305,111.866 270.5,111.5C 272.614,110.093 274.114,108.093 275,105.5C 275.497,102.854 275.664,100.187 275.5,97.5C 276.828,86.2099 277.495,74.8766 277.5,63.5 Z"/></g>
<g><path style="opacity:1" fill="#8d3d6a" d="M 451.5,62.5 C 451.833,62.5 452.167,62.5 452.5,62.5C 452.5,62.8333 452.5,63.1667 452.5,63.5C 452.5,63.8333 452.5,64.1667 452.5,64.5C 452.5,77.5 452.5,90.5 452.5,103.5C 446.5,103.5 440.5,103.5 434.5,103.5C 439.975,102.511 445.642,102.178 451.5,102.5C 451.5,89.1667 451.5,75.8333 451.5,62.5 Z"/></g>
<g><path style="opacity:1" fill="#ef465e" d="M 452.5,64.5 C 456.833,64.5 461.167,64.5 465.5,64.5C 465.5,79.1667 465.5,93.8333 465.5,108.5C 459.974,108.179 454.64,108.512 449.5,109.5C 448.502,135.661 448.169,161.995 448.5,188.5C 432.5,188.5 416.5,188.5 400.5,188.5C 400.5,186.833 400.5,185.167 400.5,183.5C 411.748,183.821 422.915,183.487 434,182.5C 434.5,156.169 434.667,129.835 434.5,103.5C 440.5,103.5 446.5,103.5 452.5,103.5C 452.5,90.5 452.5,77.5 452.5,64.5 Z"/></g>
<g><path style="opacity:1" fill="#e9576c" d="M 452.5,64.5 C 452.5,64.1667 452.5,63.8333 452.5,63.5C 457.167,63.5 461.833,63.5 466.5,63.5C 466.5,78.8333 466.5,94.1667 466.5,109.5C 460.833,109.5 455.167,109.5 449.5,109.5C 454.64,108.512 459.974,108.179 465.5,108.5C 465.5,93.8333 465.5,79.1667 465.5,64.5C 461.167,64.5 456.833,64.5 452.5,64.5 Z"/></g>
<g><path style="opacity:1" fill="#e74b63" d="M 84.5,65.5 C 83.9094,66.1515 83.2427,66.8182 82.5,67.5C 84.5862,68.4887 86.2529,69.822 87.5,71.5C 86.8333,71.5 86.1667,71.5 85.5,71.5C 83.9719,71.5173 83.4719,72.184 84,73.5C 85.3561,74.3802 86.8561,74.7135 88.5,74.5C 90.3547,74.272 91.1881,74.9387 91,76.5C 89.269,79.302 87.1024,79.9687 84.5,78.5C 80.4022,75.7352 77.4022,72.0685 75.5,67.5C 78.1174,64.7776 81.1174,64.1109 84.5,65.5 Z"/></g>
<g><path style="opacity:1" fill="#496a9d" d="M 124.5,43.5 C 125.492,50.6476 125.825,57.9809 125.5,65.5C 132.123,64.6204 138.789,64.287 145.5,64.5C 145.5,64.8333 145.5,65.1667 145.5,65.5C 138.471,65.3769 131.471,65.7103 124.5,66.5C 124.5,58.8333 124.5,51.1667 124.5,43.5 Z"/></g>
<g><path style="opacity:1" fill="#e7dae3" d="M 74.5,65.5 C 74.3284,66.4916 74.6618,67.1583 75.5,67.5C 77.4022,72.0685 80.4022,75.7352 84.5,78.5C 77.6313,76.4011 70.9646,73.7345 64.5,70.5C 67.0369,67.3553 70.3702,65.6886 74.5,65.5 Z"/></g>
<g><path style="opacity:1" fill="#69386f" d="M 96.5,64.5 C 98.1033,64.3118 99.4366,64.8118 100.5,66C 96.1289,66.1725 91.7956,66.6725 87.5,67.5C 88.1667,68.5 88.8333,69.5 89.5,70.5C 89.0431,71.2975 88.3764,71.6309 87.5,71.5C 86.2529,69.822 84.5862,68.4887 82.5,67.5C 83.2427,66.8182 83.9094,66.1515 84.5,65.5C 88.7016,65.8168 92.7016,65.4834 96.5,64.5 Z"/></g>
<g><path style="opacity:1" fill="#445e94" d="M 301.5,66.5 C 299.1,69.9031 296.1,72.5698 292.5,74.5C 292.5,74.1667 292.5,73.8333 292.5,73.5C 293.167,73.5 293.5,73.1667 293.5,72.5C 295.5,71.1667 297.167,69.5 298.5,67.5C 299.391,66.8902 300.391,66.5569 301.5,66.5 Z"/></g>
<g><path style="opacity:1" fill="#e64c63" d="M 343.5,62.5 C 347.264,63.5481 350.931,64.8815 354.5,66.5C 356.878,68.8777 359.545,70.8777 362.5,72.5C 363.5,74.1667 364.833,75.5 366.5,76.5C 366.818,81.0323 366.485,85.3656 365.5,89.5C 363.655,84.8136 361.155,80.4802 358,76.5C 353.271,71.6025 348.438,66.9359 343.5,62.5 Z"/></g>
<g><path style="opacity:1" fill="#757ca9" d="M 326.5,70.5 C 324.097,70.448 321.764,70.7814 319.5,71.5C 320.312,70.0069 321.645,69.3402 323.5,69.5C 324.726,69.5195 325.726,69.8529 326.5,70.5 Z"/></g>
<g><path style="opacity:1" fill="#7ba1bd" d="M 367.5,56.5 C 367.5,63.1667 367.5,69.8333 367.5,76.5C 367.167,76.5 366.833,76.5 366.5,76.5C 364.833,75.5 363.5,74.1667 362.5,72.5C 364.017,72.5106 365.184,73.1772 366,74.5C 366.495,72.5273 366.662,70.5273 366.5,68.5C 366.183,64.2984 366.517,60.2984 367.5,56.5 Z"/></g>
<g><path style="opacity:1" fill="#cb94a2" d="M 452.5,63.5 C 452.5,63.1667 452.5,62.8333 452.5,62.5C 457.5,62.5 462.5,62.5 467.5,62.5C 467.83,78.3422 467.496,94.0089 466.5,109.5C 466.5,94.1667 466.5,78.8333 466.5,63.5C 461.833,63.5 457.167,63.5 452.5,63.5 Z"/></g>
<g><path style="opacity:1" fill="#fafafc" d="M 220.5,76.5 C 220.883,79.8112 221.883,82.8112 223.5,85.5C 223.977,92.4049 226.143,98.7383 230,104.5C 230.739,105.574 231.739,106.241 233,106.5C 234.643,105.685 236.143,104.685 237.5,103.5C 239.686,102.177 241.186,100.177 242,97.5C 243.053,89.198 243.553,80.8647 243.5,72.5C 249.5,72.5 255.5,72.5 261.5,72.5C 261.5,74.5 261.5,76.5 261.5,78.5C 261.452,85.1972 260.952,91.8639 260,98.5C 258.253,101.067 256.753,103.734 255.5,106.5C 252.87,108.628 250.37,110.961 248,113.5C 247.415,114.998 247.915,115.998 249.5,116.5C 252.78,119.043 255.613,122.043 258,125.5C 259.094,127.078 259.928,128.745 260.5,130.5C 260.517,132.565 260.85,134.565 261.5,136.5C 262.872,146.781 263.538,157.114 263.5,167.5C 257.833,167.5 252.167,167.5 246.5,167.5C 246.498,158.142 245.998,148.809 245,139.5C 244.963,137.026 244.13,135.026 242.5,133.5C 240.32,130.074 237.653,127.074 234.5,124.5C 233.399,123.402 232.066,123.235 230.5,124C 227.882,126.106 225.882,128.606 224.5,131.5C 222.689,133.385 221.522,135.719 221,138.5C 219.853,148.134 219.353,157.8 219.5,167.5C 213.5,167.5 207.5,167.5 201.5,167.5C 201.5,162.833 201.5,158.167 201.5,153.5C 201.5,152.5 201.5,151.5 201.5,150.5C 202.889,145.731 203.556,140.731 203.5,135.5C 203.276,130.39 205.276,126.39 209.5,123.5C 212.858,121.14 215.525,118.14 217.5,114.5C 217.043,113.702 216.376,113.369 215.5,113.5C 210.428,109.757 207.428,104.757 206.5,98.5C 206.59,95.8478 205.924,93.5145 204.5,91.5C 203.529,87.5594 201.529,84.226 198.5,81.5C 203.285,77.0505 208.618,73.3838 214.5,70.5C 217.514,71.5141 219.514,73.5141 220.5,76.5 Z"/></g>
<g><path style="opacity:1" fill="#a8adc9" d="M 261.5,78.5 C 261.5,76.5 261.5,74.5 261.5,72.5C 255.5,72.5 249.5,72.5 243.5,72.5C 243.553,80.8647 243.053,89.198 242,97.5C 241.186,100.177 239.686,102.177 237.5,103.5C 238.938,100.284 240.105,96.951 241,93.5C 241.548,86.1647 242.048,78.8314 242.5,71.5C 249.167,71.5 255.833,71.5 262.5,71.5C 262.802,74.0593 262.468,76.3926 261.5,78.5 Z"/></g>
<g><path style="opacity:1" fill="#bda5b2" d="M 277.5,63.5 C 277.5,63.1667 277.5,62.8333 277.5,62.5C 282.833,62.5 288.167,62.5 293.5,62.5C 293.5,65.8333 293.5,69.1667 293.5,72.5C 293.5,73.1667 293.167,73.5 292.5,73.5C 292.5,70.1667 292.5,66.8333 292.5,63.5C 287.5,63.5 282.5,63.5 277.5,63.5 Z"/></g>
<g><path style="opacity:1" fill="#f9f9fb" d="M 326.5,70.5 C 337.1,76.5992 345.6,84.9326 352,95.5C 352.667,110.167 352.667,124.833 352,139.5C 351.886,143.568 350.72,147.235 348.5,150.5C 346.413,151.585 345.08,153.251 344.5,155.5C 339.041,160.633 333.041,164.966 326.5,168.5C 323.763,168.599 321.096,168.265 318.5,167.5C 309.45,162.116 302.45,154.783 297.5,145.5C 295.895,127.437 296.229,109.437 298.5,91.5C 298.738,89.5956 299.738,88.2623 301.5,87.5C 304.833,84.8333 307.833,81.8333 310.5,78.5C 312.637,75.027 315.637,72.6936 319.5,71.5C 321.764,70.7814 324.097,70.448 326.5,70.5 Z"/></g>
<g><path style="opacity:1" fill="#9c3d68" d="M 85.5,71.5 C 86.0998,72.8999 87.0998,73.8999 88.5,74.5C 86.8561,74.7135 85.3561,74.3802 84,73.5C 83.4719,72.184 83.9719,71.5173 85.5,71.5 Z"/></g>
<g><path style="opacity:1" fill="#fdfdfe" d="M 382.5,72.5 C 400.5,72.5 418.5,72.5 436.5,72.5C 436.5,77.5 436.5,82.5 436.5,87.5C 430.5,87.5 424.5,87.5 418.5,87.5C 418.5,114.167 418.5,140.833 418.5,167.5C 412.5,167.5 406.5,167.5 400.5,167.5C 400.5,140.833 400.5,114.167 400.5,87.5C 394.5,87.5 388.5,87.5 382.5,87.5C 382.5,82.5 382.5,77.5 382.5,72.5 Z"/></g>
<g><path style="opacity:1" fill="#ec4961" d="M 35.5,74.5 C 42.4362,73.6479 48.4362,75.4812 53.5,80C 44.5624,88.6349 33.8957,93.8016 21.5,95.5C 23.0202,86.3285 27.6869,79.3285 35.5,74.5 Z"/></g>
<g><path style="opacity:1" fill="#3f76aa" d="M 131.5,73.5 C 142.109,72.8876 150.942,76.5543 158,84.5C 160.164,86.8109 161.164,89.4775 161,92.5C 153.344,83.9943 143.844,79.3276 132.5,78.5C 129.148,78.3744 125.981,79.041 123,80.5C 122.5,80.1667 122,79.8333 121.5,79.5C 122.313,78.1861 123.313,77.0195 124.5,76C 127.104,75.6097 129.438,74.7763 131.5,73.5 Z"/></g>
<g><path style="opacity:1" fill="#f1e8ed" d="M 35.5,74.5 C 27.6869,79.3285 23.0202,86.3285 21.5,95.5C 18.7131,96.4767 15.7131,96.81 12.5,96.5C 13.6984,88.947 17.365,82.7803 23.5,78C 27.1869,75.715 31.1869,74.5483 35.5,74.5 Z"/></g>
<g><path style="opacity:1" fill="#783b6e" d="M 292.5,74.5 C 291.92,76.7488 290.587,78.4154 288.5,79.5C 289.08,77.2512 290.413,75.5846 292.5,74.5 Z"/></g>
<g><path style="opacity:1" fill="#933f6b" d="M 366.5,76.5 C 366.833,76.5 367.167,76.5 367.5,76.5C 367.666,82.1764 367.499,87.8431 367,93.5C 365.812,92.4366 365.312,91.1033 365.5,89.5C 366.485,85.3656 366.818,81.0323 366.5,76.5 Z"/></g>
<g><path style="opacity:1" fill="#4077ab" d="M 60.5,78.5 C 67.2446,80.702 73.9113,83.202 80.5,86C 83.1879,86.3924 85.8546,86.8924 88.5,87.5C 91.0281,86.0585 93.6947,85.5585 96.5,86C 90.0392,91.7523 83.3725,91.9189 76.5,86.5C 76.1667,86.8333 75.8333,87.1667 75.5,87.5C 80.1687,91.4157 85.3354,94.4157 91,96.5C 92.4596,100.798 91.1262,103.798 87,105.5C 86.6667,107.5 86.3333,109.5 86,111.5C 85.5983,110.128 85.0983,108.795 84.5,107.5C 72.7979,102.297 63.7979,94.1306 57.5,83C 58.3146,81.3566 59.3146,79.8566 60.5,78.5 Z"/></g>
<g><path style="opacity:1" fill="#26377c" d="M 60.5,81.5 C 62.1667,81.5 63.8333,81.5 65.5,81.5C 65.5,83.1667 65.5,84.8333 65.5,86.5C 61.5,87.1667 59.8333,85.5 60.5,81.5 Z"/></g>
<g><path style="opacity:1" fill="#abafcb" d="M 220.5,76.5 C 222.554,79.0076 223.554,82.0076 223.5,85.5C 221.883,82.8112 220.883,79.8112 220.5,76.5 Z"/></g>
<g><path style="opacity:1" fill="#9fa4c3" d="M 310.5,78.5 C 307.833,81.8333 304.833,84.8333 301.5,87.5C 303.5,83.5 306.5,80.5 310.5,78.5 Z"/></g>
<g><path style="opacity:1" fill="#4b6c9e" d="M 169.5,84.5 C 171.806,88.0845 173.139,92.0845 173.5,96.5C 171.589,92.767 170.256,88.767 169.5,84.5 Z"/></g>
<g><path style="opacity:1" fill="#2a3e82" d="M 68.5,87.5 C 72.6917,87.4028 74.0251,89.2361 72.5,93C 67.7282,93.8104 66.3948,91.9771 68.5,87.5 Z"/></g>
<g><path style="opacity:1" fill="#888fb5" d="M 382.5,71.5 C 382.5,71.8333 382.5,72.1667 382.5,72.5C 382.5,77.5 382.5,82.5 382.5,87.5C 388.5,87.5 394.5,87.5 400.5,87.5C 400.5,114.167 400.5,140.833 400.5,167.5C 399.502,141.339 399.169,115.005 399.5,88.5C 393.5,88.5 387.5,88.5 381.5,88.5C 381.178,82.642 381.511,76.9753 382.5,71.5 Z"/></g>
<g><path style="opacity:1" fill="#979dbf" d="M 382.5,72.5 C 382.5,72.1667 382.5,71.8333 382.5,71.5C 400.833,71.5 419.167,71.5 437.5,71.5C 437.5,77.1667 437.5,82.8333 437.5,88.5C 431.5,88.5 425.5,88.5 419.5,88.5C 419.831,115.005 419.498,141.339 418.5,167.5C 418.5,140.833 418.5,114.167 418.5,87.5C 424.5,87.5 430.5,87.5 436.5,87.5C 436.5,82.5 436.5,77.5 436.5,72.5C 418.5,72.5 400.5,72.5 382.5,72.5 Z"/></g>
<g><path style="opacity:1" fill="#a63e67" d="M 42.5,96.5 C 42.1583,95.6618 41.4916,95.3284 40.5,95.5C 42.6032,92.8754 45.2699,91.3754 48.5,91C 46.6298,93.0396 44.6298,94.8729 42.5,96.5 Z"/></g>
<g><path style="opacity:1" fill="#2a357b" d="M 322.5,90.5 C 326.853,91.3186 330.353,93.652 333,97.5C 333.667,111.833 333.667,126.167 333,140.5C 327.423,151.88 321.59,152.213 315.5,141.5C 315.333,127.163 315.5,112.829 316,98.5C 317.039,97.7562 317.539,96.7562 317.5,95.5C 319.5,94.1667 321.167,92.5 322.5,90.5 Z"/></g>
<g><path style="opacity:1" fill="#7178a7" d="M 322.5,90.5 C 321.167,92.5 319.5,94.1667 317.5,95.5C 318.167,92.8333 319.833,91.1667 322.5,90.5 Z"/></g>
<g><path style="opacity:1" fill="#27397e" d="M 75.5,93.5 C 79.1378,92.7366 80.6378,94.0699 80,97.5C 75.4155,99.4126 73.9155,98.0793 75.5,93.5 Z"/></g>
<g><path style="opacity:1" fill="#3b6ba3" d="M 125.5,89.5 C 130.688,92.9269 136.022,96.0936 141.5,99C 138.697,99.755 136.03,99.4217 133.5,98C 130.579,95.2506 127.912,92.4172 125.5,89.5 Z"/></g>
<g><path style="opacity:1" fill="#d24361" d="M 40.5,95.5 C 41.4916,95.3284 42.1583,95.6618 42.5,96.5C 40.1125,99.0762 37.1125,100.076 33.5,99.5C 33.8333,98.8333 34.1667,98.1667 34.5,97.5C 36.8583,97.7475 38.8583,97.0808 40.5,95.5 Z"/></g>
<g><path style="opacity:1" fill="#a3a8c6" d="M 204.5,91.5 C 205.924,93.5145 206.59,95.8478 206.5,98.5C 205.076,96.4855 204.41,94.1522 204.5,91.5 Z"/></g>
<g><path style="opacity:1" fill="#903c69" d="M 34.5,97.5 C 34.1667,98.1667 33.8333,98.8333 33.5,99.5C 31.8008,99.6602 30.1341,99.4935 28.5,99C 30.3453,97.872 32.3453,97.372 34.5,97.5 Z"/></g>
<g><path style="opacity:1" fill="#ea4860" d="M 56.5,97.5 C 63.5223,99.3344 68.689,103.668 72,110.5C 72.6667,111.5 72.6667,112.5 72,113.5C 70.5,111.333 68.6667,109.5 66.5,108C 65.6683,107.312 65.0016,107.479 64.5,108.5C 66.2171,112.997 66.8838,117.663 66.5,122.5C 61.7971,122.563 57.1304,122.229 52.5,121.5C 48.8792,112.634 50.2126,104.634 56.5,97.5 Z"/></g>
<g><path style="opacity:1" fill="#26367b" d="M 83.5,97.5 C 85.5,97.5 87.5,97.5 89.5,97.5C 90.5081,102.667 88.6748,104.334 84,102.5C 83.5065,100.866 83.3398,99.1992 83.5,97.5 Z"/></g>
<g><path style="opacity:1" fill="#4179ad" d="M 113.5,97.5 C 116.5,97.5 119.5,97.5 122.5,97.5C 122.5,98.8333 122.5,100.167 122.5,101.5C 120.897,101.312 119.563,101.812 118.5,103C 120.5,103.333 122.5,103.667 124.5,104C 122.415,105.041 120.748,106.541 119.5,108.5C 121.5,109.167 123.5,109.833 125.5,110.5C 121.579,111.895 117.579,113.062 113.5,114C 115.376,115.017 117.376,115.851 119.5,116.5C 115.324,118.021 110.991,118.855 106.5,119C 109.5,120 112.5,121 115.5,122C 110.845,122.499 106.179,122.666 101.5,122.5C 101.234,118.395 101.734,114.395 103,110.5C 105.955,105.713 109.455,101.38 113.5,97.5 Z"/></g>
<g><path style="opacity:1" fill="#f3ebef" d="M 56.5,97.5 C 50.2126,104.634 48.8792,112.634 52.5,121.5C 46.1472,121.816 42.4805,118.816 41.5,112.5C 43.0756,106.429 46.409,101.596 51.5,98C 53.1341,97.5065 54.8008,97.3398 56.5,97.5 Z"/></g>
<g><path style="opacity:1" fill="#5f8bb2" d="M 173.5,96.5 C 174.152,97.4486 174.486,98.6153 174.5,100C 173.211,105.255 172.211,110.422 171.5,115.5C 171.464,109.074 172.131,102.741 173.5,96.5 Z"/></g>
<g><path style="opacity:1" fill="#9cebef" d="M 178.5,76.5 C 175.862,77.65 173.862,79.4833 172.5,82C 173.686,83.4121 175.019,84.5788 176.5,85.5C 176.75,86.9221 177.583,87.9221 179,88.5C 179.667,101.5 179.667,114.5 179,127.5C 176.281,128.444 173.448,128.777 170.5,128.5C 170.405,126.214 169.738,124.214 168.5,122.5C 168.182,119.519 169.182,117.185 171.5,115.5C 172.211,110.422 173.211,105.255 174.5,100C 174.486,98.6153 174.152,97.4486 173.5,96.5C 173.139,92.0845 171.806,88.0845 169.5,84.5C 167.294,79.953 164.294,75.953 160.5,72.5C 160.586,71.5041 160.252,70.6708 159.5,70C 165.825,69.5005 172.158,69.3338 178.5,69.5C 178.5,71.8333 178.5,74.1667 178.5,76.5 Z"/></g>
<g><path style="opacity:1" fill="#9dedf1" d="M 191.5,103.5 C 192.11,104.391 192.443,105.391 192.5,106.5C 192.755,108.967 193.755,110.967 195.5,112.5C 195.657,113.873 195.49,115.207 195,116.5C 192.094,119.646 190.26,123.313 189.5,127.5C 189.167,127.5 188.833,127.5 188.5,127.5C 185.998,128.779 183.498,128.779 181,127.5C 180.5,118.173 180.334,108.839 180.5,99.5C 183.5,99.5 186.5,99.5 189.5,99.5C 189.229,101.38 189.896,102.713 191.5,103.5 Z"/></g>
<g><path style="opacity:1" fill="#f6f1f5" d="M 20.5,102.5 C 20.5,105.833 20.5,109.167 20.5,112.5C 18.5,112.5 16.5,112.5 14.5,112.5C 14.335,109.15 14.5017,105.817 15,102.5C 16.9435,101.193 18.7768,101.193 20.5,102.5 Z"/></g>
<g><path style="opacity:1" fill="#e64760" d="M 20.5,102.5 C 28.1152,102.341 31.7819,106.008 31.5,113.5C 27.7307,113.756 24.0641,113.423 20.5,112.5C 20.5,109.167 20.5,105.833 20.5,102.5 Z"/></g>
<g><path style="opacity:1" fill="#c04164" d="M 275.5,97.5 C 275.664,100.187 275.497,102.854 275,105.5C 274.114,108.093 272.614,110.093 270.5,111.5C 273.265,107.125 274.931,102.458 275.5,97.5 Z"/></g>
<g><path style="opacity:1" fill="#ed4960" d="M 382.5,109.5 C 382.5,120.5 382.5,131.5 382.5,142.5C 382.354,146.519 382.021,150.519 381.5,154.5C 379.926,156.102 379.259,158.102 379.5,160.5C 377.123,162.228 375.456,164.561 374.5,167.5C 371.757,169.239 369.757,171.573 368.5,174.5C 367.167,175.167 366.167,176.167 365.5,177.5C 361.491,180.503 357.491,183.503 353.5,186.5C 350.455,187.279 347.789,188.613 345.5,190.5C 339.677,190.877 334.011,190.21 328.5,188.5C 328.047,187.542 327.381,186.708 326.5,186C 329.361,184.754 332.361,183.754 335.5,183C 336.056,182.617 336.389,182.117 336.5,181.5C 345.728,175.11 353.895,167.443 361,158.5C 365.333,151.84 367.5,144.507 367.5,136.5C 368.494,126.013 368.828,115.346 368.5,104.5C 373.5,104.5 378.5,104.5 383.5,104.5C 383.634,106.292 383.301,107.958 382.5,109.5 Z"/></g>
<g><path style="opacity:1" fill="#3d71a7" d="M 146.5,103.5 C 147.586,103.62 148.253,104.287 148.5,105.5C 148,107.5 147.5,109.5 147,111.5C 146.29,112.973 145.124,113.64 143.5,113.5C 142.857,109.567 143.857,106.234 146.5,103.5 Z"/></g>
<g><path style="opacity:1" fill="#365f9a" d="M 157.5,101.5 C 158.496,101.414 159.329,101.748 160,102.5C 161.199,105.726 161.699,109.059 161.5,112.5C 160.167,112.5 158.833,112.5 157.5,112.5C 157.5,108.833 157.5,105.167 157.5,101.5 Z"/></g>
<g><path style="opacity:1" fill="#63376f" d="M 284.5,85.5 C 281.899,102.367 280.899,119.367 281.5,136.5C 280.505,124.345 280.171,112.011 280.5,99.5C 281.01,95.1157 281.843,90.7823 283,86.5C 283.383,85.944 283.883,85.6107 284.5,85.5 Z"/></g>
<g><path style="opacity:1" fill="#757caa" d="M 317.5,95.5 C 317.539,96.7562 317.039,97.7562 316,98.5C 315.5,112.829 315.333,127.163 315.5,141.5C 314.339,127.006 314.172,112.339 315,97.5C 315.708,96.6195 316.542,95.9528 317.5,95.5 Z"/></g>
<g><path style="opacity:1" fill="#9ca1c2" d="M 298.5,91.5 C 296.229,109.437 295.895,127.437 297.5,145.5C 296.778,145.082 296.278,144.416 296,143.5C 295.333,127.167 295.333,110.833 296,94.5C 296.377,93.0577 297.21,92.0577 298.5,91.5 Z"/></g>
<g><path style="opacity:1" fill="#c14364" d="M 384.5,109.5 C 383.833,109.5 383.167,109.5 382.5,109.5C 383.301,107.958 383.634,106.292 383.5,104.5C 378.5,104.5 373.5,104.5 368.5,104.5C 368.828,115.346 368.494,126.013 367.5,136.5C 367.5,125.5 367.5,114.5 367.5,103.5C 373.167,103.5 378.833,103.5 384.5,103.5C 384.5,105.5 384.5,107.5 384.5,109.5 Z"/></g>
<g><path style="opacity:1" fill="#5e8ab2" d="M 192.5,106.5 C 194.245,108.033 195.245,110.033 195.5,112.5C 193.755,110.967 192.755,108.967 192.5,106.5 Z"/></g>
<g><path style="opacity:1" fill="#7178a7" d="M 255.5,106.5 C 254.287,109.225 252.454,111.559 250,113.5C 249.517,114.448 249.351,115.448 249.5,116.5C 247.915,115.998 247.415,114.998 248,113.5C 250.37,110.961 252.87,108.628 255.5,106.5 Z"/></g>
<g><path style="opacity:1" fill="#ecedf3" d="M 82.5,117.5 C 84.5,117.5 86.5,117.5 88.5,117.5C 88.5,119.167 88.5,120.833 88.5,122.5C 87.3409,124.377 85.6742,124.877 83.5,124C 81.3162,122.102 80.9829,119.936 82.5,117.5 Z"/></g>
<g><path style="opacity:1" fill="#afb4ce" d="M 215.5,113.5 C 216.376,113.369 217.043,113.702 217.5,114.5C 215.525,118.14 212.858,121.14 209.5,123.5C 210.713,120.775 212.546,118.441 215,116.5C 215.483,115.552 215.649,114.552 215.5,113.5 Z"/></g>
<g><path style="opacity:1" fill="#bcb3bd" d="M 382.5,109.5 C 383.167,109.5 383.833,109.5 384.5,109.5C 384.5,109.833 384.5,110.167 384.5,110.5C 383.833,121.167 383.167,131.833 382.5,142.5C 382.5,131.5 382.5,120.5 382.5,109.5 Z"/></g>
<g><path style="opacity:1" fill="#e94d64" d="M 28.5,143.5 C 20.9167,142.914 16.5834,138.914 15.5,131.5C 16.0127,127.447 16.846,123.447 18,119.5C 20.9882,118.256 23.1548,119.256 24.5,122.5C 22.9547,123.452 21.288,123.785 19.5,123.5C 21.8787,127.815 25.3787,131.148 30,133.5C 29.635,136.794 29.135,140.127 28.5,143.5 Z"/></g>
<g><path style="opacity:1" fill="#b1b5ce" d="M 82.5,117.5 C 86.2522,115.989 89.9189,116.323 93.5,118.5C 94.8333,119.833 94.8333,121.167 93.5,122.5C 91.5307,118.639 89.864,118.639 88.5,122.5C 88.5,120.833 88.5,119.167 88.5,117.5C 86.5,117.5 84.5,117.5 82.5,117.5 Z"/></g>
<g><path style="opacity:1" fill="#3d71a7" d="M 142.5,121.5 C 143.479,122.765 144.479,124.099 145.5,125.5C 147.865,126.085 149.865,127.252 151.5,129C 147.961,129.282 144.461,129.782 141,130.5C 138.98,129.968 138.147,128.635 138.5,126.5C 141.91,126.616 143.244,124.95 142.5,121.5 Z"/></g>
<g><path style="opacity:1" fill="#737aa8" d="M 234.5,124.5 C 233.448,124.351 232.448,124.517 231.5,125C 229.297,127.372 226.963,129.539 224.5,131.5C 225.882,128.606 227.882,126.106 230.5,124C 232.066,123.235 233.399,123.402 234.5,124.5 Z"/></g>
<g><path style="opacity:1" fill="#e4455f" d="M 71.5,137.5 C 69.4855,136.076 67.1522,135.41 64.5,135.5C 61.9327,133.039 61.9327,130.539 64.5,128C 68.9094,126.738 72.7428,127.572 76,130.5C 77.468,134.918 75.968,137.252 71.5,137.5 Z"/></g>
<g><path style="opacity:1" fill="#5881ab" d="M 168.5,122.5 C 169.738,124.214 170.405,126.214 170.5,128.5C 170.5,128.833 170.5,129.167 170.5,129.5C 169.076,127.485 168.41,125.152 168.5,122.5 Z"/></g>
<g><path style="opacity:1" fill="#c54263" d="M 84.5,128.5 C 88.1331,128.443 88.2998,129.443 85,131.5C 84.5172,130.552 84.3505,129.552 84.5,128.5 Z"/></g>
<g><path style="opacity:1" fill="#3e73a9" d="M 100.5,127.5 C 104.048,127.095 107.381,127.595 110.5,129C 103.023,129.401 102.689,130.901 109.5,133.5C 107.955,134.452 106.288,134.785 104.5,134.5C 104.5,135.5 104.5,136.5 104.5,137.5C 102.5,137.5 100.5,137.5 98.5,137.5C 98.0339,133.838 98.7006,130.505 100.5,127.5 Z"/></g>
<g><path style="opacity:1" fill="#9dedf1" d="M 164.5,151.5 C 171.017,146.177 173.35,139.177 171.5,130.5C 173.948,129.527 176.615,129.194 179.5,129.5C 179.5,138.833 179.5,148.167 179.5,157.5C 170.161,157.666 160.827,157.5 151.5,157C 155.211,156.156 158.877,155.156 162.5,154C 163.381,153.292 164.047,152.458 164.5,151.5 Z"/></g>
<g><path style="opacity:1" fill="#9dedf0" d="M 187.5,130.5 C 187.5,132.5 187.5,134.5 187.5,136.5C 185.896,140.9 185.229,145.566 185.5,150.5C 184.532,152.607 184.198,154.941 184.5,157.5C 183.167,157.5 181.833,157.5 180.5,157.5C 180.334,148.494 180.5,139.494 181,130.5C 183.274,129.189 185.44,129.189 187.5,130.5 Z"/></g>
<g><path style="opacity:1" fill="#d27889" d="M 449.5,109.5 C 449.5,136.167 449.5,162.833 449.5,189.5C 432.991,189.83 416.658,189.496 400.5,188.5C 416.5,188.5 432.5,188.5 448.5,188.5C 448.169,161.995 448.502,135.661 449.5,109.5 Z"/></g>
<g><path style="opacity:1" fill="#e8475f" d="M 43.5,147.5 C 38.6999,143.484 37.3666,138.484 39.5,132.5C 41.1859,129.995 43.5193,129.162 46.5,130C 51.1667,133.333 55.8333,136.667 60.5,140C 64.7963,140.964 69.1296,141.797 73.5,142.5C 75.9538,145.712 76.9538,149.379 76.5,153.5C 76.3333,155.833 76.1667,158.167 76,160.5C 74.9887,161.337 73.8221,161.67 72.5,161.5C 72.8515,158.927 72.3515,156.594 71,154.5C 70.1785,157.117 69.6785,159.784 69.5,162.5C 65.8431,162.88 64.8431,161.547 66.5,158.5C 66.4435,157.263 65.9435,156.263 65,155.5C 64.3565,159.654 62.1898,161.32 58.5,160.5C 62.2012,154.16 60.5345,149.994 53.5,148C 50.1832,147.502 46.8499,147.335 43.5,147.5 Z"/></g>
<g><path style="opacity:1" fill="#ede0e8" d="M 15.5,131.5 C 16.5834,138.914 20.9167,142.914 28.5,143.5C 23.7094,146.462 19.2094,145.796 15,141.5C 14.1925,137.973 14.3592,134.64 15.5,131.5 Z"/></g>
<g><path style="opacity:1" fill="#f1e6ec" d="M 39.5,132.5 C 37.3666,138.484 38.6999,143.484 43.5,147.5C 35.9239,148.754 32.7573,145.421 34,137.5C 35.0757,134.921 36.909,133.254 39.5,132.5 Z"/></g>
<g><path style="opacity:1" fill="#c94262" d="M 89.5,131.5 C 91.4646,131.948 91.7979,132.948 90.5,134.5C 88.4759,136.358 86.3092,138.025 84,139.5C 83.3333,138.5 83.3333,137.5 84,136.5C 86.1906,135.167 88.024,133.5 89.5,131.5 Z"/></g>
<g><path style="opacity:1" fill="#953c69" d="M 64.5,135.5 C 67.1522,135.41 69.4855,136.076 71.5,137.5C 68.8478,137.59 66.5145,136.924 64.5,135.5 Z"/></g>
<g><path style="opacity:1" fill="#70396e" d="M 274.5,124.5 C 276.888,128.751 278.221,133.417 278.5,138.5C 278.5,140.167 278.5,141.833 278.5,143.5C 276.725,137.382 275.392,131.049 274.5,124.5 Z"/></g>
<g><path style="opacity:1" fill="#5d649a" d="M 224.5,131.5 C 222.223,143.536 220.556,155.536 219.5,167.5C 219.353,157.8 219.853,148.134 221,138.5C 221.522,135.719 222.689,133.385 224.5,131.5 Z"/></g>
<g><path style="opacity:1" fill="#ce4362" d="M 90.5,137.5 C 91.5862,137.62 92.2528,138.287 92.5,139.5C 90.1722,142.66 87.3388,145.327 84,147.5C 83.3333,146.5 83.3333,145.5 84,144.5C 86.3722,142.297 88.5389,139.963 90.5,137.5 Z"/></g>
<g><path style="opacity:1" fill="#3c6fa5" d="M 158.5,126.5 C 164.602,139.412 160.602,145.745 146.5,145.5C 146.5,144.5 146.5,143.5 146.5,142.5C 157.181,142.537 161.181,137.203 158.5,126.5 Z"/></g>
<g><path style="opacity:1" fill="#446297" d="M 188.5,127.5 C 188.833,127.5 189.167,127.5 189.5,127.5C 189.066,132.668 188.4,137.668 187.5,142.5C 187.5,140.5 187.5,138.5 187.5,136.5C 187.5,134.5 187.5,132.5 187.5,130.5C 188.404,129.791 188.737,128.791 188.5,127.5 Z"/></g>
<g><path style="opacity:1" fill="#417bae" d="M 126.5,129.5 C 132.607,129.641 137.44,132.307 141,137.5C 141.874,140.379 141.54,143.045 140,145.5C 139.727,143.899 139.227,142.399 138.5,141C 135.808,140.57 133.141,140.737 130.5,141.5C 130.5,139.5 130.5,137.5 130.5,135.5C 126.104,137.359 121.771,139.526 117.5,142C 113.931,142.39 110.597,143.39 107.5,145C 110,145.375 112.333,146.208 114.5,147.5C 115.347,152.154 116.013,156.821 116.5,161.5C 114.833,161.5 113.167,161.5 111.5,161.5C 109.962,153.667 108.962,153.667 108.5,161.5C 107.5,161.5 106.5,161.5 105.5,161.5C 103.962,153.667 102.962,153.667 102.5,161.5C 101.167,161.5 99.8333,161.5 98.5,161.5C 98.0339,155.341 98.7006,149.341 100.5,143.5C 111.209,142.481 119.876,137.814 126.5,129.5 Z"/></g>
<g><path style="opacity:1" fill="#858cb3" d="M 260.5,130.5 C 263.161,134.31 264.161,138.644 263.5,143.5C 262.833,141.167 262.167,138.833 261.5,136.5C 260.85,134.565 260.517,132.565 260.5,130.5 Z"/></g>
<g><path style="opacity:1" fill="#e1455f" d="M 91.5,145.5 C 92.4345,146.568 92.7678,147.901 92.5,149.5C 90.901,149.768 89.5676,149.434 88.5,148.5C 89.1667,147.167 90.1667,146.167 91.5,145.5 Z"/></g>
<g><path style="opacity:1" fill="#c44263" d="M 280.5,99.5 C 280.171,112.011 280.505,124.345 281.5,136.5C 281.058,142.763 282.058,148.763 284.5,154.5C 282.883,152.879 281.716,150.879 281,148.5C 280.831,160.007 280.331,171.341 279.5,182.5C 279.796,169.451 279.463,156.451 278.5,143.5C 278.5,141.833 278.5,140.167 278.5,138.5C 279.167,125.5 279.833,112.5 280.5,99.5 Z"/></g>
<g><path style="opacity:1" fill="#9f3d68" d="M 91.5,145.5 C 91.56,144.957 91.8933,144.624 92.5,144.5C 93.4656,146.396 93.7989,148.396 93.5,150.5C 91.076,150.808 88.7427,150.474 86.5,149.5C 86.9569,148.702 87.6236,148.369 88.5,148.5C 89.5676,149.434 90.901,149.768 92.5,149.5C 92.7678,147.901 92.4345,146.568 91.5,145.5 Z"/></g>
<g><path style="opacity:1" fill="#72aac6" d="M 187.5,136.5 C 187.5,138.5 187.5,140.5 187.5,142.5C 187.5,143.167 187.5,143.833 187.5,144.5C 186.833,146.5 186.167,148.5 185.5,150.5C 185.229,145.566 185.896,140.9 187.5,136.5 Z"/></g>
<g><path style="opacity:1" fill="#bdc1d6" d="M 203.5,135.5 C 203.556,140.731 202.889,145.731 201.5,150.5C 201.444,145.269 202.111,140.269 203.5,135.5 Z"/></g>
<g><path style="opacity:1" fill="#ed465e" d="M 284.5,154.5 C 287.469,158.476 290.469,162.476 293.5,166.5C 293.5,173.833 293.5,181.167 293.5,188.5C 262.833,188.5 232.167,188.5 201.5,188.5C 201.5,186.833 201.5,185.167 201.5,183.5C 227.672,183.831 253.672,183.498 279.5,182.5C 280.331,171.341 280.831,160.007 281,148.5C 281.716,150.879 282.883,152.879 284.5,154.5 Z"/></g>
<g><path style="opacity:1" fill="#576097" d="M 242.5,135.5 C 243.957,140.598 244.624,145.931 244.5,151.5C 243.194,146.384 242.527,141.051 242.5,135.5 Z"/></g>
<g><path style="opacity:1" fill="#5074a4" d="M 12.5,152.5 C 16.5956,153.508 20.5956,154.508 24.5,155.5C 20.0184,155.966 16.0184,154.966 12.5,152.5 Z"/></g>
<g><path style="opacity:1" fill="#6d74a4" d="M 348.5,150.5 C 347.92,152.749 346.587,154.415 344.5,155.5C 345.08,153.251 346.413,151.585 348.5,150.5 Z"/></g>
<g><path style="opacity:1" fill="#de4560" d="M 42.5,152.5 C 46.0681,152.759 47.4015,154.759 46.5,158.5C 44.8333,158.5 43.1667,158.5 41.5,158.5C 41.3253,156.379 41.6586,154.379 42.5,152.5 Z"/></g>
<g><path style="opacity:1" fill="#db4460" d="M 54.5,153.5 C 56.3607,157.328 55.0274,158.995 50.5,158.5C 50.5,156.833 50.5,155.167 50.5,153.5C 51.8333,153.5 53.1667,153.5 54.5,153.5 Z"/></g>
<g><path style="opacity:1" fill="#427db0" d="M 119.5,153.5 C 121.167,153.5 122.833,153.5 124.5,153.5C 124.5,154.833 124.5,156.167 124.5,157.5C 122.833,157.5 121.167,157.5 119.5,157.5C 119.5,156.167 119.5,154.833 119.5,153.5 Z"/></g>
<g><path style="opacity:1" fill="#4179ad" d="M 129.5,152.5 C 133.485,152.629 134.818,154.463 133.5,158C 131.866,158.494 130.199,158.66 128.5,158.5C 128.325,156.379 128.659,154.379 129.5,152.5 Z"/></g>
<g><path style="opacity:1" fill="#7a396c" d="M 54.5,153.5 C 53.1667,153.5 51.8333,153.5 50.5,153.5C 50.5,155.167 50.5,156.833 50.5,158.5C 49.5386,156.735 49.2053,154.735 49.5,152.5C 51.4147,152.216 53.0813,152.549 54.5,153.5 Z"/></g>
<g><path style="opacity:1" fill="#ee465e" d="M 81.5,155.5 C 97.5,156.167 97.5,156.833 81.5,157.5C 81.5,156.833 81.5,156.167 81.5,155.5 Z"/></g>
<g><path style="opacity:1" fill="#b34065" d="M 81.5,155.5 C 85.6344,154.515 89.9677,154.182 94.5,154.5C 94.5,155.833 94.5,157.167 94.5,158.5C 89.9677,158.818 85.6344,158.485 81.5,157.5C 97.5,156.833 97.5,156.167 81.5,155.5 Z"/></g>
<g><path style="opacity:1" fill="#cacdde" d="M 242.5,133.5 C 244.13,135.026 244.963,137.026 245,139.5C 245.998,148.809 246.498,158.142 246.5,167.5C 245.833,163.833 245.167,160.167 244.5,156.5C 244.5,154.833 244.5,153.167 244.5,151.5C 244.624,145.931 243.957,140.598 242.5,135.5C 242.5,134.833 242.5,134.167 242.5,133.5 Z"/></g>
<g><path style="opacity:1" fill="#b9b6be" d="M 381.5,154.5 C 381.741,156.898 381.074,158.898 379.5,160.5C 379.259,158.102 379.926,156.102 381.5,154.5 Z"/></g>
<g><path style="opacity:1" fill="#8ed6de" d="M 176.5,85.5 C 181.057,88.3657 185.557,91.3657 190,94.5C 190.696,97.4781 191.196,100.478 191.5,103.5C 189.896,102.713 189.229,101.38 189.5,99.5C 186.5,99.5 183.5,99.5 180.5,99.5C 180.334,108.839 180.5,118.173 181,127.5C 183.498,128.779 185.998,128.779 188.5,127.5C 188.737,128.791 188.404,129.791 187.5,130.5C 185.44,129.189 183.274,129.189 181,130.5C 180.5,139.494 180.334,148.494 180.5,157.5C 181.833,157.5 183.167,157.5 184.5,157.5C 184.198,154.941 184.532,152.607 185.5,150.5C 185.5,161.167 185.5,171.833 185.5,182.5C 184.508,175.018 184.175,167.352 184.5,159.5C 182.833,159.5 181.167,159.5 179.5,159.5C 170.318,159.173 161.318,159.507 152.5,160.5C 152.167,160.5 151.833,160.5 151.5,160.5C 150.85,158.565 150.517,156.565 150.5,154.5C 155.551,154.958 160.217,153.958 164.5,151.5C 164.047,152.458 163.381,153.292 162.5,154C 158.877,155.156 155.211,156.156 151.5,157C 160.827,157.5 170.161,157.666 179.5,157.5C 179.5,148.167 179.5,138.833 179.5,129.5C 176.615,129.194 173.948,129.527 171.5,130.5C 170.833,130.5 170.5,130.167 170.5,129.5C 170.5,129.167 170.5,128.833 170.5,128.5C 173.448,128.777 176.281,128.444 179,127.5C 179.667,114.5 179.667,101.5 179,88.5C 177.583,87.9221 176.75,86.9221 176.5,85.5 Z"/></g>
<g><path style="opacity:1" fill="#9ff0f3" d="M 22.5,161.5 C 20.1642,170.173 17.8309,178.839 15.5,187.5C 10.8333,187.5 6.16667,187.5 1.5,187.5C 1.5,178.167 1.5,168.833 1.5,159.5C 8.91309,158.872 15.9131,159.539 22.5,161.5 Z"/></g>
<g><path style="opacity:1" fill="#9ff0f3" d="M 179.5,159.5 C 179.5,168.833 179.5,178.167 179.5,187.5C 173.167,187.5 166.833,187.5 160.5,187.5C 159.833,186.167 159.167,184.833 158.5,183.5C 157.943,178.835 156.61,174.502 154.5,170.5C 154.041,167.123 153.374,163.789 152.5,160.5C 161.318,159.507 170.318,159.173 179.5,159.5 Z"/></g>
<g><path style="opacity:1" fill="#9feaef" d="M 384.5,110.5 C 384.169,135.006 384.502,159.339 385.5,183.5C 386.209,184.404 387.209,184.737 388.5,184.5C 388.5,185.5 388.5,186.5 388.5,187.5C 379.167,187.5 369.833,187.5 360.5,187.5C 360.34,185.801 360.506,184.134 361,182.5C 362.707,180.963 364.207,179.296 365.5,177.5C 366.167,176.167 367.167,175.167 368.5,174.5C 371.243,172.761 373.243,170.427 374.5,167.5C 375.456,164.561 377.123,162.228 379.5,160.5C 381.074,158.898 381.741,156.898 381.5,154.5C 382.021,150.519 382.354,146.519 382.5,142.5C 383.167,131.833 383.833,121.167 384.5,110.5 Z"/></g>
<g><path style="opacity:1" fill="#5c87af" d="M 384.5,109.5 C 385.498,133.661 385.831,157.994 385.5,182.5C 390.167,182.5 394.833,182.5 399.5,182.5C 399.5,182.833 399.5,183.167 399.5,183.5C 394.833,183.5 390.167,183.5 385.5,183.5C 384.502,159.339 384.169,135.006 384.5,110.5C 384.5,110.167 384.5,109.833 384.5,109.5 Z"/></g>
<g><path style="opacity:1" fill="#a5c4cb" d="M 449.5,109.5 C 455.167,109.5 460.833,109.5 466.5,109.5C 461.36,110.488 456.026,110.821 450.5,110.5C 450.5,126.167 450.5,141.833 450.5,157.5C 450.5,158.167 450.5,158.833 450.5,159.5C 450.5,168.833 450.5,178.167 450.5,187.5C 450.5,188.167 450.5,188.833 450.5,189.5C 450.167,189.5 449.833,189.5 449.5,189.5C 449.5,162.833 449.5,136.167 449.5,109.5 Z"/></g>
<g><path style="opacity:1" fill="#df455f" d="M 80.5,163.5 C 84.6463,162.353 88.9796,162.186 93.5,163C 91.316,165.016 89.316,167.183 87.5,169.5C 85.1472,167.477 82.8138,165.477 80.5,163.5 Z"/></g>
<g><path style="opacity:1" fill="#547aa7" d="M 151.5,160.5 C 151.833,160.5 152.167,160.5 152.5,160.5C 153.374,163.789 154.041,167.123 154.5,170.5C 152.723,167.495 151.723,164.162 151.5,160.5 Z"/></g>
<g><path style="opacity:1" fill="#e44660" d="M 38.5,191.5 C 38.81,188.287 38.4767,185.287 37.5,182.5C 37.1966,176.923 35.53,171.923 32.5,167.5C 32.5,166.5 32.5,165.5 32.5,164.5C 37.8884,166.066 41.055,169.733 42,175.5C 42.1764,178.882 42.6764,182.215 43.5,185.5C 45.4305,181.708 46.7639,177.708 47.5,173.5C 47.8333,173.833 48.1667,174.167 48.5,174.5C 49.7463,180.819 49.7463,187.153 48.5,193.5C 44.9219,193.451 41.5885,192.785 38.5,191.5 Z"/></g>
<g><path style="opacity:1" fill="#b7bbd2" d="M 261.5,136.5 C 262.167,138.833 262.833,141.167 263.5,143.5C 263.198,146.059 263.532,148.393 264.5,150.5C 264.822,156.358 264.489,162.025 263.5,167.5C 263.538,157.114 262.872,146.781 261.5,136.5 Z"/></g>
<g><path style="opacity:1" fill="#4c6d9f" d="M 187.5,144.5 C 186.707,157.15 186.374,169.817 186.5,182.5C 191.167,182.5 195.833,182.5 200.5,182.5C 200.5,182.833 200.5,183.167 200.5,183.5C 195.305,183.821 190.305,183.487 185.5,182.5C 185.5,171.833 185.5,161.167 185.5,150.5C 186.167,148.5 186.833,146.5 187.5,144.5 Z"/></g>
<g><path style="opacity:1" fill="#7a81ad" d="M 201.5,153.5 C 201.5,158.167 201.5,162.833 201.5,167.5C 207.5,167.5 213.5,167.5 219.5,167.5C 213.355,168.49 207.022,168.823 200.5,168.5C 200.179,163.305 200.513,158.305 201.5,153.5 Z"/></g>
<g><path style="opacity:1" fill="#474f8c" d="M 264.5,150.5 C 265.49,156.645 265.823,162.978 265.5,169.5C 258.5,169.5 251.5,169.5 244.5,169.5C 244.5,165.167 244.5,160.833 244.5,156.5C 245.167,160.167 245.833,163.833 246.5,167.5C 252.167,167.5 257.833,167.5 263.5,167.5C 264.489,162.025 264.822,156.358 264.5,150.5 Z"/></g>
<g><path style="opacity:1" fill="#faf3f5" d="M 32.5,167.5 C 35.53,171.923 37.1966,176.923 37.5,182.5C 37.5,185.167 37.5,187.833 37.5,190.5C 33.8815,189.756 30.2148,189.423 26.5,189.5C 27.898,181.899 29.898,174.566 32.5,167.5 Z"/></g>
<g><path style="opacity:1" fill="#f4f4f8" d="M 84.5,173.5 C 84.8298,190.342 84.4965,207.008 83.5,223.5C 80.9392,221.629 78.4392,219.629 76,217.5C 75.8405,201.067 77.0071,184.733 79.5,168.5C 81.5212,169.855 83.1879,171.521 84.5,173.5 Z"/></g>
<g><path style="opacity:1" fill="#4079ad" d="M 141.5,166.5 C 143.311,168.385 144.478,170.719 145,173.5C 146.802,178.708 147.969,184.041 148.5,189.5C 147.022,189.762 145.689,189.429 144.5,188.5C 141.098,181.43 140.098,174.097 141.5,166.5 Z"/></g>
<g><path style="opacity:1" fill="#e9465f" d="M 59.5,198.5 C 59.9505,190.04 59.2838,181.706 57.5,173.5C 57.1776,169.561 58.511,168.728 61.5,171C 64.6626,172.48 66.496,174.98 67,178.5C 67.6467,186.189 67.48,193.856 66.5,201.5C 63.9785,200.989 61.6451,199.989 59.5,198.5 Z"/></g>
<g><path style="opacity:1" fill="#567da9" d="M 154.5,170.5 C 156.61,174.502 157.943,178.835 158.5,183.5C 156.39,179.498 155.057,175.165 154.5,170.5 Z"/></g>
<g><path style="opacity:1" fill="#a7acc9" d="M 84.5,173.5 C 85.827,190.338 85.827,207.338 84.5,224.5C 83.8933,224.376 83.56,224.043 83.5,223.5C 84.4965,207.008 84.8298,190.342 84.5,173.5 Z"/></g>
<g><path style="opacity:1" fill="#3f76ab" d="M 116.5,171.5 C 117.748,172.334 118.415,173.667 118.5,175.5C 119.497,182.14 120.163,188.807 120.5,195.5C 119.5,195.5 118.5,195.5 117.5,195.5C 115.428,187.564 115.094,179.564 116.5,171.5 Z"/></g>
<g><path style="opacity:1" fill="#f2e1e7" d="M 57.5,173.5 C 59.2838,181.706 59.9505,190.04 59.5,198.5C 56.2154,197.537 54.5488,195.37 54.5,192C 55.1447,185.634 56.1447,179.468 57.5,173.5 Z"/></g>
<g><path style="opacity:1" fill="#4078ac" d="M 134.5,175.5 C 135.117,175.611 135.617,175.944 136,176.5C 136.997,181.486 137.831,186.486 138.5,191.5C 137.167,191.5 135.833,191.5 134.5,191.5C 133.422,186.107 133.422,180.774 134.5,175.5 Z"/></g>
<g><path style="opacity:1" fill="#417aae" d="M 95.5,176.5 C 97.9474,189.929 99.114,203.595 99,217.5C 96.5536,219.959 94.0536,222.292 91.5,224.5C 91.2288,221.484 92.3955,218.818 95,216.5C 95.4999,203.171 95.6666,189.837 95.5,176.5 Z"/></g>
<g><path style="opacity:1" fill="#e4bac8" d="M 37.5,182.5 C 38.4767,185.287 38.81,188.287 38.5,191.5C 34.2357,191.656 30.2357,190.989 26.5,189.5C 30.2148,189.423 33.8815,189.756 37.5,190.5C 37.5,187.833 37.5,185.167 37.5,182.5 Z"/></g>
<g><path style="opacity:1" fill="#4078ac" d="M 108.5,182.5 C 109.765,183.514 110.431,185.014 110.5,187C 111.198,191.811 111.531,196.644 111.5,201.5C 110.5,201.5 109.5,201.5 108.5,201.5C 108.5,195.167 108.5,188.833 108.5,182.5 Z"/></g>
<g><path style="opacity:1" fill="#435f96" d="M 158.5,183.5 C 159.167,184.833 159.833,186.167 160.5,187.5C 160.5,188.167 160.5,188.833 160.5,189.5C 160.598,191.553 159.931,193.22 158.5,194.5C 158.5,190.833 158.5,187.167 158.5,183.5 Z"/></g>
<g><path style="opacity:1" fill="#9ff0f3" d="M 15.5,192.5 C 16.4358,197.431 19.4358,199.765 24.5,199.5C 26.0276,200.309 27.6943,200.976 29.5,201.5C 29.5,206.833 29.5,212.167 29.5,217.5C 20.1667,217.5 10.8333,217.5 1.5,217.5C 1.5,208.167 1.5,198.833 1.5,189.5C 5.83333,189.5 10.1667,189.5 14.5,189.5C 14.2627,190.791 14.596,191.791 15.5,192.5 Z"/></g>
<g><path style="opacity:1" fill="#9feff3" d="M 160.5,189.5 C 166.833,189.5 173.167,189.5 179.5,189.5C 179.5,198.833 179.5,208.167 179.5,217.5C 169.833,217.5 160.167,217.5 150.5,217.5C 150.334,212.156 150.501,206.823 151,201.5C 153.131,200.385 154.965,199.052 156.5,197.5C 157.167,196.5 157.833,195.5 158.5,194.5C 159.931,193.22 160.598,191.553 160.5,189.5 Z"/></g>
<g><path style="opacity:1" fill="#4c6e9f" d="M 150.5,199.5 C 146.764,200.989 142.764,201.656 138.5,201.5C 142.267,200.205 146.267,199.539 150.5,199.5 Z"/></g>
<g><path style="opacity:1" fill="#547ba7" d="M 24.5,199.5 C 27.4951,199.294 30.1617,199.96 32.5,201.5C 31.5,201.5 30.5,201.5 29.5,201.5C 27.6943,200.976 26.0276,200.309 24.5,199.5 Z"/></g>
<g><path style="opacity:1" fill="#9eeef2" d="M 38.5,202.5 C 42.486,203.329 46.486,204.163 50.5,205C 53.5672,207.188 56.5672,209.355 59.5,211.5C 59.5,213.5 59.5,215.5 59.5,217.5C 50.1667,217.5 40.8333,217.5 31.5,217.5C 31.5,212.5 31.5,207.5 31.5,202.5C 33.8333,202.5 36.1667,202.5 38.5,202.5 Z"/></g>
<g><path style="opacity:1" fill="#a1dbde" d="M -0.5,-0.5 C -0.166667,-0.5 0.166667,-0.5 0.5,-0.5C 0.5,32.1667 0.5,64.8333 0.5,97.5C 0.5,99.5 0.5,101.5 0.5,103.5C 1.5,103.5 2.5,103.5 3.5,103.5C 3.33432,107.846 3.50098,112.179 4,116.5C 4.84981,118.01 5.68314,119.51 6.5,121C 3.9872,127.975 3.15386,135.142 4,142.5C 5.22319,147.324 8.05652,150.658 12.5,152.5C 16.0184,154.966 20.0184,155.966 24.5,155.5C 24.405,157.786 23.7384,159.786 22.5,161.5C 15.9131,159.539 8.91309,158.872 1.5,159.5C 1.5,168.833 1.5,178.167 1.5,187.5C 6.16667,187.5 10.8333,187.5 15.5,187.5C 15.5,189.167 15.5,190.833 15.5,192.5C 14.596,191.791 14.2627,190.791 14.5,189.5C 10.1667,189.5 5.83333,189.5 1.5,189.5C 1.5,198.833 1.5,208.167 1.5,217.5C 10.8333,217.5 20.1667,217.5 29.5,217.5C 29.5,212.167 29.5,206.833 29.5,201.5C 30.5,201.5 31.5,201.5 32.5,201.5C 34.7354,201.205 36.7354,201.539 38.5,202.5C 36.1667,202.5 33.8333,202.5 31.5,202.5C 31.5,207.5 31.5,212.5 31.5,217.5C 40.8333,217.5 50.1667,217.5 59.5,217.5C 59.5,215.5 59.5,213.5 59.5,211.5C 61.1703,211.751 62.6703,212.418 64,213.5C 64.4974,216.146 64.6641,218.813 64.5,221.5C 63.8485,220.909 63.1818,220.243 62.5,219.5C 61.5018,228.475 61.1685,237.475 61.5,246.5C 60.8333,246.5 60.1667,246.5 59.5,246.5C 59.5,237.5 59.5,228.5 59.5,219.5C 50.1667,219.5 40.8333,219.5 31.5,219.5C 31.5,228.5 31.5,237.5 31.5,246.5C 30.8333,246.5 30.1667,246.5 29.5,246.5C 29.5,237.5 29.5,228.5 29.5,219.5C 20.1667,219.5 10.8333,219.5 1.5,219.5C 1.5,228.5 1.5,237.5 1.5,246.5C 0.833333,246.5 0.166667,246.5 -0.5,246.5C -0.5,164.167 -0.5,81.8333 -0.5,-0.5 Z"/></g>
<g><path style="opacity:1" fill="#97dfe3" d="M 483.5,157.5 C 483.5,187.167 483.5,216.833 483.5,246.5C 481.833,246.5 480.167,246.5 478.5,246.5C 478.5,237.5 478.5,228.5 478.5,219.5C 469.167,219.5 459.833,219.5 450.5,219.5C 450.5,228.5 450.5,237.5 450.5,246.5C 449.833,246.5 449.167,246.5 448.5,246.5C 448.5,237.5 448.5,228.5 448.5,219.5C 439.167,219.5 429.833,219.5 420.5,219.5C 420.5,228.5 420.5,237.5 420.5,246.5C 419.833,246.5 419.167,246.5 418.5,246.5C 418.5,237.5 418.5,228.5 418.5,219.5C 409.167,219.5 399.833,219.5 390.5,219.5C 390.5,228.5 390.5,237.5 390.5,246.5C 389.833,246.5 389.167,246.5 388.5,246.5C 388.5,237.5 388.5,228.5 388.5,219.5C 379.167,219.5 369.833,219.5 360.5,219.5C 360.5,228.5 360.5,237.5 360.5,246.5C 359.833,246.5 359.167,246.5 358.5,246.5C 358.5,237.5 358.5,228.5 358.5,219.5C 349.167,219.5 339.833,219.5 330.5,219.5C 330.5,228.5 330.5,237.5 330.5,246.5C 329.833,246.5 329.167,246.5 328.5,246.5C 328.5,237.5 328.5,228.5 328.5,219.5C 319.167,219.5 309.833,219.5 300.5,219.5C 300.5,228.5 300.5,237.5 300.5,246.5C 299.833,246.5 299.167,246.5 298.5,246.5C 298.5,237.5 298.5,228.5 298.5,219.5C 289.167,219.5 279.833,219.5 270.5,219.5C 270.5,228.5 270.5,237.5 270.5,246.5C 269.833,246.5 269.167,246.5 268.5,246.5C 268.5,237.5 268.5,228.5 268.5,219.5C 259.5,219.5 250.5,219.5 241.5,219.5C 241.5,228.5 241.5,237.5 241.5,246.5C 240.5,246.5 239.5,246.5 238.5,246.5C 238.5,237.5 238.5,228.5 238.5,219.5C 229.5,219.5 220.5,219.5 211.5,219.5C 211.5,228.5 211.5,237.5 211.5,246.5C 210.833,246.5 210.167,246.5 209.5,246.5C 209.5,237.5 209.5,228.5 209.5,219.5C 200.167,219.5 190.833,219.5 181.5,219.5C 181.5,228.5 181.5,237.5 181.5,246.5C 180.833,246.5 180.167,246.5 179.5,246.5C 179.5,237.5 179.5,228.5 179.5,219.5C 170.167,219.5 160.833,219.5 151.5,219.5C 151.5,228.5 151.5,237.5 151.5,246.5C 150.833,246.5 150.167,246.5 149.5,246.5C 149.5,237.5 149.5,228.5 149.5,219.5C 140.167,219.5 130.833,219.5 121.5,219.5C 121.5,228.5 121.5,237.5 121.5,246.5C 120.833,246.5 120.167,246.5 119.5,246.5C 119.5,237.5 119.5,228.5 119.5,219.5C 116.145,219.091 113.145,219.758 110.5,221.5C 110.336,218.813 110.503,216.146 111,213.5C 116.248,208.965 122.082,205.631 128.5,203.5C 126.164,204.857 123.83,206.19 121.5,207.5C 121.5,210.833 121.5,214.167 121.5,217.5C 130.5,217.5 139.5,217.5 148.5,217.5C 148.5,212.5 148.5,207.5 148.5,202.5C 143.507,202.916 138.507,203.249 133.5,203.5C 135.167,202.833 136.833,202.167 138.5,201.5C 142.764,201.656 146.764,200.989 150.5,199.5C 152.421,198.637 154.421,197.971 156.5,197.5C 154.965,199.052 153.131,200.385 151,201.5C 150.501,206.823 150.334,212.156 150.5,217.5C 160.167,217.5 169.833,217.5 179.5,217.5C 179.5,208.167 179.5,198.833 179.5,189.5C 173.167,189.5 166.833,189.5 160.5,189.5C 160.5,188.833 160.5,188.167 160.5,187.5C 166.833,187.5 173.167,187.5 179.5,187.5C 179.5,178.167 179.5,168.833 179.5,159.5C 181.167,159.5 182.833,159.5 184.5,159.5C 184.175,167.352 184.508,175.018 185.5,182.5C 190.305,183.487 195.305,183.821 200.5,183.5C 200.5,185.5 200.5,187.5 200.5,189.5C 231.833,189.5 263.167,189.5 294.5,189.5C 295.167,182.833 295.833,176.167 296.5,169.5C 303.831,177.496 312.831,182.496 323.5,184.5C 324.539,186.531 326.205,187.864 328.5,188.5C 334.011,190.21 339.677,190.877 345.5,190.5C 346.167,190.5 346.833,190.5 347.5,190.5C 347.38,191.586 346.713,192.253 345.5,192.5C 340.297,193.993 335.297,193.659 330.5,191.5C 330.5,200.167 330.5,208.833 330.5,217.5C 339.833,217.5 349.167,217.5 358.5,217.5C 358.667,206.828 358.5,196.161 358,185.5C 356.644,186.38 355.144,186.714 353.5,186.5C 357.491,183.503 361.491,180.503 365.5,177.5C 364.207,179.296 362.707,180.963 361,182.5C 360.506,184.134 360.34,185.801 360.5,187.5C 369.833,187.5 379.167,187.5 388.5,187.5C 388.5,186.5 388.5,185.5 388.5,184.5C 387.209,184.737 386.209,184.404 385.5,183.5C 390.167,183.5 394.833,183.5 399.5,183.5C 399.5,185.5 399.5,187.5 399.5,189.5C 396.5,189.5 393.5,189.5 390.5,189.5C 390.5,198.833 390.5,208.167 390.5,217.5C 399.833,217.5 409.167,217.5 418.5,217.5C 418.5,208.5 418.5,199.5 418.5,190.5C 419.167,190.5 419.833,190.5 420.5,190.5C 420.5,199.5 420.5,208.5 420.5,217.5C 429.833,217.5 439.167,217.5 448.5,217.5C 448.5,208.5 448.5,199.5 448.5,190.5C 449.167,190.5 449.5,190.167 449.5,189.5C 449.833,189.5 450.167,189.5 450.5,189.5C 450.5,188.833 450.5,188.167 450.5,187.5C 459.833,187.5 469.167,187.5 478.5,187.5C 478.5,178.167 478.5,168.833 478.5,159.5C 469.167,159.5 459.833,159.5 450.5,159.5C 450.5,158.833 450.5,158.167 450.5,157.5C 459.833,157.5 469.167,157.5 478.5,157.5C 479.167,120.167 479.833,120.167 480.5,157.5C 481.5,157.5 482.5,157.5 483.5,157.5 Z"/></g>
<g><path style="opacity:1" fill="#9ff0f3" d="M 128.5,203.5 C 130.167,203.5 131.833,203.5 133.5,203.5C 138.507,203.249 143.507,202.916 148.5,202.5C 148.5,207.5 148.5,212.5 148.5,217.5C 139.5,217.5 130.5,217.5 121.5,217.5C 121.5,214.167 121.5,210.833 121.5,207.5C 123.83,206.19 126.164,204.857 128.5,203.5 Z"/></g>
<g><path style="opacity:1" fill="#a0f0f3" d="M 420.5,190.5 C 429.833,190.5 439.167,190.5 448.5,190.5C 448.5,199.5 448.5,208.5 448.5,217.5C 439.167,217.5 429.833,217.5 420.5,217.5C 420.5,208.5 420.5,199.5 420.5,190.5 Z"/></g>
<g><path style="opacity:1" fill="#9ff0f3" d="M 241.5,190.5 C 250.5,190.5 259.5,190.5 268.5,190.5C 268.5,199.5 268.5,208.5 268.5,217.5C 259.167,217.5 249.833,217.5 240.5,217.5C 240.196,208.416 240.529,199.416 241.5,190.5 Z"/></g>
<g><path style="opacity:1" fill="#9ff0f3" d="M 211.5,190.5 C 220.506,190.334 229.506,190.5 238.5,191C 239.484,199.749 239.817,208.582 239.5,217.5C 229.833,217.5 220.167,217.5 210.5,217.5C 210.196,208.416 210.529,199.416 211.5,190.5 Z"/></g>
<g><path style="opacity:1" fill="#9ff0f3" d="M 450.5,189.5 C 459.833,189.5 469.167,189.5 478.5,189.5C 478.5,198.833 478.5,208.167 478.5,217.5C 469.167,217.5 459.833,217.5 450.5,217.5C 450.5,208.167 450.5,198.833 450.5,189.5 Z"/></g>
<g><path style="opacity:1" fill="#a0f0f3" d="M 399.5,189.5 C 405.645,190.49 411.978,190.823 418.5,190.5C 418.5,199.5 418.5,208.5 418.5,217.5C 409.167,217.5 399.833,217.5 390.5,217.5C 390.5,208.167 390.5,198.833 390.5,189.5C 393.5,189.5 396.5,189.5 399.5,189.5 Z"/></g>
<g><path style="opacity:1" fill="#9ff0f3" d="M 360.5,189.5 C 369.833,189.5 379.167,189.5 388.5,189.5C 388.5,198.833 388.5,208.167 388.5,217.5C 379.167,217.5 369.833,217.5 360.5,217.5C 360.5,208.167 360.5,198.833 360.5,189.5 Z"/></g>
<g><path style="opacity:1" fill="#9ff0f3" d="M 347.5,190.5 C 349.918,189.707 351.918,188.374 353.5,186.5C 355.144,186.714 356.644,186.38 358,185.5C 358.5,196.161 358.667,206.828 358.5,217.5C 349.167,217.5 339.833,217.5 330.5,217.5C 330.5,208.833 330.5,200.167 330.5,191.5C 335.297,193.659 340.297,193.993 345.5,192.5C 346.713,192.253 347.38,191.586 347.5,190.5 Z"/></g>
<g><path style="opacity:1" fill="#9ff0f3" d="M 300.5,189.5 C 309.833,189.5 319.167,189.5 328.5,189.5C 328.5,198.833 328.5,208.167 328.5,217.5C 319.167,217.5 309.833,217.5 300.5,217.5C 300.5,208.167 300.5,198.833 300.5,189.5 Z"/></g>
<g><path style="opacity:1" fill="#9ff0f3" d="M 296.5,189.5 C 298.472,198.44 299.139,207.773 298.5,217.5C 289.167,217.5 279.833,217.5 270.5,217.5C 270.5,208.5 270.5,199.5 270.5,190.5C 279.349,190.826 288.016,190.493 296.5,189.5 Z"/></g>
<g><path style="opacity:1" fill="#9ff0f3" d="M 200.5,189.5 C 203.287,190.477 206.287,190.81 209.5,190.5C 209.5,199.5 209.5,208.5 209.5,217.5C 200.167,217.5 190.833,217.5 181.5,217.5C 181.5,208.167 181.5,198.833 181.5,189.5C 187.833,189.5 194.167,189.5 200.5,189.5 Z"/></g>
<g><path style="opacity:1" fill="#b5bfc7" d="M 399.5,182.5 C 400.167,182.5 400.5,182.833 400.5,183.5C 400.5,185.167 400.5,186.833 400.5,188.5C 416.658,189.496 432.991,189.83 449.5,189.5C 449.5,190.167 449.167,190.5 448.5,190.5C 439.167,190.5 429.833,190.5 420.5,190.5C 419.833,190.5 419.167,190.5 418.5,190.5C 411.978,190.823 405.645,190.49 399.5,189.5C 399.5,187.5 399.5,185.5 399.5,183.5C 399.5,183.167 399.5,182.833 399.5,182.5 Z"/></g>
<g><path style="opacity:1" fill="#c0a3ad" d="M 353.5,186.5 C 351.918,188.374 349.918,189.707 347.5,190.5C 346.833,190.5 346.167,190.5 345.5,190.5C 347.789,188.613 350.455,187.279 353.5,186.5 Z"/></g>
<g><path style="opacity:1" fill="#c4607a" d="M 293.5,166.5 C 294.167,166.5 294.5,166.833 294.5,167.5C 294.5,174.833 294.5,182.167 294.5,189.5C 263.167,189.5 231.833,189.5 200.5,189.5C 200.5,187.5 200.5,185.5 200.5,183.5C 200.5,183.167 200.5,182.833 200.5,182.5C 226.833,182.5 253.167,182.5 279.5,182.5C 253.672,183.498 227.672,183.831 201.5,183.5C 201.5,185.167 201.5,186.833 201.5,188.5C 232.167,188.5 262.833,188.5 293.5,188.5C 293.5,181.167 293.5,173.833 293.5,166.5 Z"/></g>
<g><path style="opacity:1" fill="#c45873" d="M 336.5,181.5 C 336.389,182.117 336.056,182.617 335.5,183C 332.361,183.754 329.361,184.754 326.5,186C 327.381,186.708 328.047,187.542 328.5,188.5C 326.205,187.864 324.539,186.531 323.5,184.5C 327.93,183.881 332.263,182.881 336.5,181.5 Z"/></g>
<g><path style="opacity:1" fill="#bea6b3" d="M 294.5,167.5 C 295.5,167.833 296.167,168.5 296.5,169.5C 295.833,176.167 295.167,182.833 294.5,189.5C 294.5,182.167 294.5,174.833 294.5,167.5 Z"/></g>
<g><path style="opacity:1" fill="#c3acb7" d="M 374.5,167.5 C 373.243,170.427 371.243,172.761 368.5,174.5C 369.757,171.573 371.757,169.239 374.5,167.5 Z"/></g>
<g><path style="opacity:1" fill="#a6abc8" d="M 318.5,167.5 C 321.096,168.265 323.763,168.599 326.5,168.5C 325.551,169.152 324.385,169.486 323,169.5C 320.992,169.693 319.492,169.026 318.5,167.5 Z"/></g>
<g><path style="opacity:1" fill="#9ff0f3" d="M 450.5,159.5 C 459.833,159.5 469.167,159.5 478.5,159.5C 478.5,168.833 478.5,178.167 478.5,187.5C 469.167,187.5 459.833,187.5 450.5,187.5C 450.5,178.167 450.5,168.833 450.5,159.5 Z"/></g>
<g><path style="opacity:1" fill="#9ff0f3" d="M 29.5,246.5 C 20.1667,246.5 10.8333,246.5 1.5,246.5C 1.5,237.5 1.5,228.5 1.5,219.5C 10.8333,219.5 20.1667,219.5 29.5,219.5C 29.5,228.5 29.5,237.5 29.5,246.5 Z"/></g>
<g><path style="opacity:1" fill="#9ff0f3" d="M 59.5,246.5 C 50.1667,246.5 40.8333,246.5 31.5,246.5C 31.5,237.5 31.5,228.5 31.5,219.5C 40.8333,219.5 50.1667,219.5 59.5,219.5C 59.5,228.5 59.5,237.5 59.5,246.5 Z"/></g>
<g><path style="opacity:1" fill="#9eeef2" d="M 64.5,221.5 C 71.9119,228.053 79.5785,234.387 87.5,240.5C 94.8945,233.766 102.561,227.433 110.5,221.5C 113.145,219.758 116.145,219.091 119.5,219.5C 119.5,228.5 119.5,237.5 119.5,246.5C 100.167,246.5 80.8333,246.5 61.5,246.5C 61.1685,237.475 61.5018,228.475 62.5,219.5C 63.1818,220.243 63.8485,220.909 64.5,221.5 Z"/></g>
<g><path style="opacity:1" fill="#9ff0f3" d="M 149.5,246.5 C 140.167,246.5 130.833,246.5 121.5,246.5C 121.5,237.5 121.5,228.5 121.5,219.5C 130.833,219.5 140.167,219.5 149.5,219.5C 149.5,228.5 149.5,237.5 149.5,246.5 Z"/></g>
<g><path style="opacity:1" fill="#9ff0f3" d="M 179.5,246.5 C 170.167,246.5 160.833,246.5 151.5,246.5C 151.5,237.5 151.5,228.5 151.5,219.5C 160.833,219.5 170.167,219.5 179.5,219.5C 179.5,228.5 179.5,237.5 179.5,246.5 Z"/></g>
<g><path style="opacity:1" fill="#9ff0f3" d="M 209.5,246.5 C 200.167,246.5 190.833,246.5 181.5,246.5C 181.5,237.5 181.5,228.5 181.5,219.5C 190.833,219.5 200.167,219.5 209.5,219.5C 209.5,228.5 209.5,237.5 209.5,246.5 Z"/></g>
<g><path style="opacity:1" fill="#9ff0f3" d="M 238.5,246.5 C 229.5,246.5 220.5,246.5 211.5,246.5C 211.5,237.5 211.5,228.5 211.5,219.5C 220.5,219.5 229.5,219.5 238.5,219.5C 238.5,228.5 238.5,237.5 238.5,246.5 Z"/></g>
<g><path style="opacity:1" fill="#9ff0f3" d="M 268.5,246.5 C 259.5,246.5 250.5,246.5 241.5,246.5C 241.5,237.5 241.5,228.5 241.5,219.5C 250.5,219.5 259.5,219.5 268.5,219.5C 268.5,228.5 268.5,237.5 268.5,246.5 Z"/></g>
<g><path style="opacity:1" fill="#9ff0f3" d="M 298.5,246.5 C 289.167,246.5 279.833,246.5 270.5,246.5C 270.5,237.5 270.5,228.5 270.5,219.5C 279.833,219.5 289.167,219.5 298.5,219.5C 298.5,228.5 298.5,237.5 298.5,246.5 Z"/></g>
<g><path style="opacity:1" fill="#9ff0f3" d="M 328.5,246.5 C 319.167,246.5 309.833,246.5 300.5,246.5C 300.5,237.5 300.5,228.5 300.5,219.5C 309.833,219.5 319.167,219.5 328.5,219.5C 328.5,228.5 328.5,237.5 328.5,246.5 Z"/></g>
<g><path style="opacity:1" fill="#9ff0f3" d="M 358.5,246.5 C 349.167,246.5 339.833,246.5 330.5,246.5C 330.5,237.5 330.5,228.5 330.5,219.5C 339.833,219.5 349.167,219.5 358.5,219.5C 358.5,228.5 358.5,237.5 358.5,246.5 Z"/></g>
<g><path style="opacity:1" fill="#9ff0f3" d="M 388.5,246.5 C 379.167,246.5 369.833,246.5 360.5,246.5C 360.5,237.5 360.5,228.5 360.5,219.5C 369.833,219.5 379.167,219.5 388.5,219.5C 388.5,228.5 388.5,237.5 388.5,246.5 Z"/></g>
<g><path style="opacity:1" fill="#9ff0f3" d="M 418.5,246.5 C 409.167,246.5 399.833,246.5 390.5,246.5C 390.5,237.5 390.5,228.5 390.5,219.5C 399.833,219.5 409.167,219.5 418.5,219.5C 418.5,228.5 418.5,237.5 418.5,246.5 Z"/></g>
<g><path style="opacity:1" fill="#9ff0f3" d="M 448.5,246.5 C 439.167,246.5 429.833,246.5 420.5,246.5C 420.5,237.5 420.5,228.5 420.5,219.5C 429.833,219.5 439.167,219.5 448.5,219.5C 448.5,228.5 448.5,237.5 448.5,246.5 Z"/></g>
<g><path style="opacity:1" fill="#9ff0f3" d="M 478.5,246.5 C 469.167,246.5 459.833,246.5 450.5,246.5C 450.5,237.5 450.5,228.5 450.5,219.5C 459.833,219.5 469.167,219.5 478.5,219.5C 478.5,228.5 478.5,237.5 478.5,246.5 Z"/></g>
</svg>
